<svg width="1386" height="861" viewBox="0 0 1386 861" fill="none" xmlns="http://www.w3.org/2000/svg">
<path d="M560.759 859.526L560.326 859.25C536.121 843.806 499.81 821.373 451.391 791.949L451.38 791.942C405.516 762.522 356.465 732.735 304.229 702.579C245.621 668.744 187.651 636.749 130.319 606.593L130.308 606.587C75.5174 576.428 32.835 553.258 2.25819 537.077L1.78626 536.827L42.8092 513.145L43.2422 513.395C106.916 550.154 166.715 572.911 222.636 581.715C279.672 589.76 339.347 575.878 401.708 539.877L864.25 272.851C924.442 238.103 962.969 208.731 979.913 184.734L980.705 183.595C997.196 159.428 993.4 135.265 969.275 111.075L969.273 111.073C946.377 87.5748 906.284 59.28 848.959 26.1864L848.526 25.9364L891.429 1.16848L891.862 1.40479C986.138 52.888 1070.84 92.226 1145.97 119.427L1149.5 120.694C1223.56 147.17 1301.31 164.385 1382.76 172.342L1383.93 172.456L574.593 639.684C513.47 674.97 486.247 706.865 492.58 735.386L492.734 736.056C499.492 764.476 535.633 797.652 601.352 835.592L601.785 835.842L560.759 859.526Z" stroke="#A19E98"/>
</svg>
