<svg width="1487" height="904" viewBox="0 0 1487 904" fill="none" xmlns="http://www.w3.org/2000/svg">
<path d="M1382.62 103.2C1470.6 153.992 1519.11 206.289 1528.05 260.09L1528.06 260.091C1539.55 313.918 1506.33 363.307 1428.49 408.241C1377.45 437.706 1316.84 458.7 1246.67 471.222V471.223C1179.08 483.739 1105.12 491.099 1024.8 493.307L1024.79 493.308C945.768 494.779 864.839 494.411 781.999 492.204H781.989C700.445 489.261 620.175 487.055 541.18 485.584L541.169 485.583C463.944 483.39 392.392 485.195 326.509 490.992L713.653 714.49C739.758 729.561 762.819 740.853 782.839 748.374C802.86 755.896 819.774 759.622 833.611 759.626C862.732 758.894 897.65 749.751 938.389 732.112L938.814 731.928L972.115 751.153L971.682 751.403C904.151 790.389 852.55 820.913 816.879 842.977L810.475 846.959C778.674 866.783 750.235 885.312 725.156 902.548L724.619 902.917L724.17 902.51C715.839 894.952 698.551 882.861 672.273 866.225L666.896 862.837C637.594 844.45 603.834 823.488 565.614 799.953L565.613 799.953L1.33712 474.197L34.4303 455.092L34.6671 455.085C114.969 452.878 205.459 453.613 306.136 457.292C408.051 460.234 511.877 459.866 617.616 456.189L617.616 456.188L622.688 456.011C729.116 452.154 831.222 440.817 929.007 422L929.011 422L931.395 421.549C1032.26 402.386 1121.86 370.2 1200.18 324.986C1272.75 283.088 1307.66 243.088 1305.12 204.977V204.964C1305.12 166.83 1275.27 130.503 1215.47 95.9761C1164.59 66.6056 1102.27 48.2473 1028.49 40.9031L1028.47 40.9021C955.962 32.8237 873.238 36.4918 780.286 51.9287L779.692 52.0273L779.526 51.6846L766.147 24.099L765.994 23.7831L766.528 23.6713L769.341 23.0883C828.469 10.9247 891.302 3.75699 957.836 1.58286L957.837 1.58237L961.126 1.48521C1030.22 -0.429347 1099.92 5.86382 1170.23 20.3604L1170.24 20.3619L1173.65 21.0957C1245.18 36.6971 1314.84 64.0708 1382.62 103.2Z" stroke="#A19E98"/>
</svg>
