<svg width="1802" height="848" viewBox="0 0 1802 848" fill="none" xmlns="http://www.w3.org/2000/svg">
<path d="M1665.13 90.4415C1718.69 121.365 1756.97 153.772 1779.94 187.663C1805.46 221.548 1813.13 254.712 1802.92 287.147L1802.54 288.666C1794.41 320.522 1767.7 349.508 1722.47 375.622C1672.69 404.36 1612.69 422.782 1542.49 430.888V430.889C1474.88 438.99 1404.08 439.357 1330.11 431.994L1330.09 431.993C1258.48 424.015 1189.95 411.388 1124.52 394.117C1182.11 429.11 1226.65 468.054 1258.14 510.947L1259.68 512.951C1291.7 555.024 1303.95 597.819 1296.42 641.33L1296.23 642.366C1288.17 686.208 1251.2 727.13 1185.38 765.127C1126.7 799.007 1058.43 822.21 980.6 834.732C905.336 847.251 824.342 850.563 737.625 844.674C650.921 840.256 563.585 828.11 475.621 808.239V808.238C386.385 789.103 300.974 764.082 219.39 733.174V733.173C139.081 703 66.4164 669.148 1.40036 631.614L0.96734 631.364L36.229 611.007L36.6621 611.247L39.7719 612.966C105.207 648.955 178.663 678.89 260.14 702.771L260.151 702.774L263.972 703.938C344.269 728.269 427.027 744.051 512.249 751.286L512.257 751.287L516.371 751.657C602.771 759.264 687.316 755.834 770.012 741.367L770.022 741.365L774.013 740.701C857.708 726.554 934.016 699.592 1002.94 659.803C1078.05 616.444 1121.29 570.167 1132.74 520.975L1132.74 520.971L1132.74 520.965C1146.72 471.811 1125.14 427.799 1067.98 388.905C1041.28 382.298 1017.12 376.425 995.494 371.285L995.48 371.282L995.468 371.279C976.308 366.117 960.952 360.211 949.421 353.554C939.186 347.645 933.348 342.061 932.047 336.802L932.04 336.778V336.753C932.04 330.768 935.935 325.53 943.687 321.055C955.313 314.343 969.549 312.107 986.308 314.34L987.866 314.556C1003.91 316.866 1018.15 321.61 1030.56 328.779C1040.78 334.679 1049.73 341.316 1057.39 348.687C1067.53 356.004 1078.3 363.685 1089.7 371.73C1181.28 379.055 1262.01 375.739 1331.92 361.797C1403.2 347.101 1463.01 325.795 1511.35 297.884C1571.18 263.347 1599.08 229.603 1595.27 196.643L1595.27 196.635V196.627C1594 163.638 1567.98 132.456 1517.09 103.079C1464.93 72.9675 1402.6 53.1382 1330.08 43.5896V43.5906C1258.85 34.7792 1179.96 38.4463 1093.39 54.6153L1092.83 54.7207L1092.63 54.3985L1075.43 26.8134L1075.22 26.4848L1075.79 26.3622C1136.05 13.3165 1198.78 5.26553 1263.98 2.20804L1267.09 2.06596C1334.71 -1.61595 1401.69 3.17255 1468.03 16.4288C1536.94 29.6908 1602.64 54.3675 1665.13 90.4415Z" stroke="#A19E98"/>
</svg>
