<svg width="1449" height="701" viewBox="0 0 1449 701" fill="none" xmlns="http://www.w3.org/2000/svg">
<path d="M1532.3 1.54809L1562.94 19.2383L783.12 469.431L805.624 482.422C831.729 497.493 854.79 508.784 874.809 516.306C894.836 523.83 911.756 527.556 925.594 527.558C954.713 526.824 989.627 517.68 1030.36 500.043L1030.78 499.859L1064.09 519.084L1063.65 519.334C1001.22 555.378 954.078 583.328 922.231 603.184L916.296 606.894C886.811 625.382 860.126 642.898 836.242 659.444L835.67 659.841L835.236 659.389C828.909 652.815 815.584 643.65 795.201 631.883L795.185 631.874L795.172 631.865C779.566 621.569 761.033 609.582 739.572 595.905L730.195 589.94C706.51 574.9 681.173 559.542 654.184 543.865L281.484 759.025L127.712 670.253L500.422 455.087L1.56408 167.096L42.2741 143.594L42.4686 143.575L1531.37 1.23756L1531.69 1.19264L1531.71 1.20534L1532.88 1.09304L1532.3 1.54809ZM245.094 158.828L629.348 380.658L1173.59 66.4648L245.094 158.828Z" stroke="#A19E98"/>
</svg>
