<svg width="1781" height="875" viewBox="0 0 1781 875" fill="none" xmlns="http://www.w3.org/2000/svg">
<path d="M1917.88 229.034L1917.45 229.284C1844.82 271.213 1788.76 304.312 1749.26 328.583L1741.92 333.108C1705.49 355.605 1673.54 376.16 1646.07 394.775L1645.52 395.15L1645.08 394.727C1637.47 387.406 1619.67 374.926 1591.64 357.268L1591.64 357.268C1564.88 340.354 1533.04 321.232 1496.09 299.902L1496.07 299.894C1460.4 277.828 1424.73 256.498 1389.05 235.904L1186.86 119.177L796.262 318.27C838.038 326.344 881.69 336.951 927.218 350.093C974.446 362.622 1024.19 383.983 1076.46 414.157C1154.23 459.054 1205.27 503.238 1229.52 546.709C1253.76 590.17 1255.68 631.805 1235.25 671.603L1234.29 673.465C1213.64 712.515 1175.67 747.989 1120.42 779.887C1046.44 822.596 960.968 850.583 864.011 863.84C767.079 877.094 666.327 877.829 561.761 866.05C458.848 855.906 359.643 836.49 264.148 807.804L259.603 806.431C162.709 776.991 76.6487 740.558 1.42492 697.131L0.9919 696.881L36.2621 676.519L36.6951 676.769C92.7104 709.107 157 735.198 229.568 755.042L229.581 755.046L232.925 756.004C303.213 775.987 377.197 787.425 454.884 790.318L454.893 790.319H454.903C533.811 794.727 612.722 788.85 691.644 772.683L695.341 771.916C772.91 755.611 847.419 726.842 918.865 685.597C999.066 639.297 1040.38 591.195 1042.92 541.29V541.279C1048.01 491.384 1011.79 444.031 934.155 399.209C901.051 380.098 869.876 365.777 840.632 356.234L840.621 356.231L840.611 356.227C813.881 346.674 782.051 337.118 745.117 327.56L744.844 327.49L744.773 327.324L737.127 309.668L737.037 309.46L737.316 309.318L1343.21 1.46536L1343.73 1.20268L1344.12 1.52932C1355.57 11.0794 1369.57 21.3682 1386.13 32.395L1386.13 32.3945C1403.96 44.1584 1421.78 55.1865 1439.61 65.4788L1655.59 190.164C1681.7 205.235 1704.76 216.527 1724.78 224.048C1744.8 231.57 1761.72 235.296 1775.55 235.3C1804.67 234.568 1839.59 225.425 1880.33 207.786L1880.76 207.602L1917.88 229.034Z" stroke="#A19E98"/>
</svg>
