<?xml version="1.0" encoding="UTF-8"?>
<svg fill="none" viewBox="0 0 963 206" xmlns="http://www.w3.org/2000/svg">
<g class="groupOne">
<path d="m753.25 136.12c2.56 0 4.64 0.352 6.24 1.056 1.664 0.64 3.04 1.536 4.128 2.688 1.152 1.216 1.952 2.784 2.4 4.704 0.512 1.92 0.768 4.512 0.768 7.776v25.728c0 2.688 0.512 4.512 1.536 5.472 1.088 0.96 2.88 1.44 5.376 1.44v2.016c-1.088-0.064-2.784-0.128-5.088-0.192-2.304-0.128-4.576-0.192-6.816-0.192-2.176 0-4.352 0.064-6.528 0.192-2.112 0.064-3.712 0.128-4.8 0.192v-2.016c2.176 0 3.712-0.48 4.608-1.44s1.344-2.784 1.344-5.472v-28.416c0-1.856-0.16-3.52-0.48-4.992-0.32-1.536-0.992-2.752-2.016-3.648-1.024-0.96-2.56-1.44-4.608-1.44-2.368 0-4.48 0.672-6.336 2.016-1.792 1.344-3.232 3.2-4.32 5.568-1.024 2.304-1.536 4.896-1.536 7.776v23.136c0 2.688 0.448 4.512 1.344 5.472 0.96 0.96 2.496 1.44 4.608 1.44v2.016c-1.024-0.064-2.592-0.128-4.704-0.192-2.048-0.128-4.192-0.192-6.432-0.192-2.176 0-4.448 0.064-6.816 0.192-2.368 0.064-4.128 0.128-5.28 0.192v-2.016c2.496 0 4.256-0.48 5.28-1.44 1.088-0.96 1.632-2.784 1.632-5.472v-30.144c0-2.88-0.48-4.992-1.44-6.336-0.96-1.408-2.784-2.112-5.472-2.112v-2.016c2.048 0.192 4.032 0.288 5.952 0.288 2.176 0 4.192-0.096 6.048-0.288 1.92-0.256 3.68-0.608 5.28-1.056v10.464c1.664-3.968 3.936-6.752 6.816-8.352 2.944-1.6 6.048-2.4 9.312-2.4z" fill="#D9D9D9"/>
<path d="m686.42 205.05c-3.584 0-6.912-0.352-9.984-1.056-3.008-0.704-5.44-1.792-7.296-3.264-1.792-1.408-2.688-3.232-2.688-5.472 0-2.112 0.896-3.968 2.688-5.568s4.32-2.816 7.584-3.648l0.672 1.536c-1.344 0.576-2.4 1.504-3.168 2.784-0.704 1.28-1.056 2.688-1.056 4.224 0 2.816 1.312 4.992 3.936 6.528s6.08 2.304 10.368 2.304c2.88 0 5.6-0.384 8.16-1.152 2.624-0.704 4.736-1.888 6.336-3.552 1.664-1.664 2.496-3.808 2.496-6.432 0-2.048-0.736-3.776-2.208-5.184-1.472-1.344-4.384-2.016-8.736-2.016h-6.72c-2.24 0-4.32-0.192-6.24-0.576s-3.488-1.12-4.704-2.208c-1.152-1.152-1.728-2.752-1.728-4.8 0-2.304 0.96-4.48 2.88-6.528s5.152-4.064 9.696-6.048l1.152 0.864c-1.856 1.024-3.52 2.08-4.992 3.168-1.408 1.024-2.112 2.304-2.112 3.84 0 2.048 1.472 3.072 4.416 3.072h11.424c3.008 0 5.728 0.416 8.16 1.248 2.432 0.768 4.384 2.016 5.856 3.744s2.208 4 2.208 6.816c0 3.008-0.992 5.824-2.976 8.448-1.92 2.688-4.832 4.832-8.736 6.432-3.904 1.664-8.8 2.496-14.688 2.496zm0.576-38.496c-3.264 0-6.24-0.512-8.928-1.536-2.688-1.088-4.8-2.752-6.336-4.992s-2.304-5.12-2.304-8.64 0.768-6.4 2.304-8.64c1.536-2.304 3.648-3.968 6.336-4.992 2.688-1.088 5.664-1.632 8.928-1.632 3.392 0 6.4 0.544 9.024 1.632 2.624 1.024 4.704 2.688 6.24 4.992 1.536 2.24 2.304 5.12 2.304 8.64s-0.768 6.4-2.304 8.64-3.616 3.904-6.24 4.992c-2.624 1.024-5.632 1.536-9.024 1.536zm0-1.728c2.24 0 3.968-0.96 5.184-2.88s1.824-5.44 1.824-10.56-0.608-8.64-1.824-10.56c-1.216-1.984-2.944-2.976-5.184-2.976-2.112 0-3.808 0.992-5.088 2.976-1.28 1.92-1.92 5.44-1.92 10.56s0.64 8.64 1.92 10.56 2.976 2.88 5.088 2.88zm14.208-20.64-1.728-0.672c0.896-2.24 2.432-4.192 4.608-5.856s4.448-2.496 6.816-2.496c1.792 0 3.2 0.512 4.224 1.536 1.088 0.96 1.632 2.336 1.632 4.128 0 1.984-0.544 3.392-1.632 4.224-1.024 0.832-2.112 1.248-3.264 1.248-1.024 0-1.984-0.352-2.88-1.056-0.832-0.704-1.312-1.792-1.44-3.264-0.128-1.536 0.352-3.488 1.44-5.856l1.056 0.384c-2.56 1.024-4.448 2.112-5.664 3.264-1.152 1.088-2.208 2.56-3.168 4.416z" fill="#D9D9D9"/>
<path d="m651.11 113.27c1.984 0 3.648 0.64 4.992 1.92 1.344 1.216 2.016 2.752 2.016 4.608s-0.672 3.424-2.016 4.704c-1.344 1.216-3.008 1.824-4.992 1.824s-3.648-0.608-4.992-1.824c-1.344-1.28-2.016-2.848-2.016-4.704s0.672-3.392 2.016-4.608c1.344-1.28 3.008-1.92 4.992-1.92zm5.76 23.136v41.664c0 2.688 0.512 4.512 1.536 5.472 1.088 0.96 2.88 1.44 5.376 1.44v2.016c-1.088-0.064-2.784-0.128-5.088-0.192-2.24-0.128-4.544-0.192-6.912-0.192-2.24 0-4.544 0.064-6.912 0.192-2.368 0.064-4.128 0.128-5.28 0.192v-2.016c2.496 0 4.256-0.48 5.28-1.44 1.088-0.96 1.632-2.784 1.632-5.472v-30.144c0-2.88-0.48-4.992-1.44-6.336-0.96-1.408-2.784-2.112-5.472-2.112v-2.016c2.048 0.192 4.032 0.288 5.952 0.288 2.176 0 4.192-0.096 6.048-0.288 1.92-0.256 3.68-0.608 5.28-1.056z" fill="#D9D9D9"/>
<path d="m628.08 111.74v66.336c0 2.688 0.512 4.512 1.536 5.472 1.088 0.96 2.88 1.44 5.376 1.44v2.016c-1.088-0.064-2.784-0.128-5.088-0.192-2.304-0.128-4.608-0.192-6.912-0.192s-4.64 0.064-7.008 0.192c-2.304 0.064-4.032 0.128-5.184 0.192v-2.016c2.496 0 4.256-0.48 5.28-1.44 1.088-0.96 1.632-2.784 1.632-5.472v-54.816c0-2.88-0.48-4.992-1.44-6.336-0.96-1.408-2.784-2.112-5.472-2.112v-2.016c2.048 0.192 4.032 0.288 5.952 0.288 2.112 0 4.128-0.096 6.048-0.288 1.92-0.256 3.68-0.608 5.28-1.056z" fill="#D9D9D9"/>
<path d="m579.64 118.65 23.424 60.288c0.896 2.368 1.92 3.968 3.072 4.8 1.216 0.832 2.336 1.28 3.36 1.344v1.92c-1.536-0.128-3.36-0.192-5.472-0.192-2.048-0.064-4.128-0.096-6.24-0.096-2.688 0-5.184 0.032-7.488 0.096-2.304 0-4.16 0.064-5.568 0.192v-1.92c3.264-0.128 5.312-0.672 6.144-1.632 0.896-1.024 0.704-3.168-0.576-6.432l-17.28-46.656 1.536-1.728-15.936 41.664c-1.152 2.88-1.856 5.28-2.112 7.2-0.192 1.92-0.032 3.424 0.48 4.512 0.576 1.088 1.536 1.856 2.88 2.304s3.008 0.704 4.992 0.768v1.92c-1.92-0.128-3.872-0.192-5.856-0.192-1.92-0.064-3.744-0.096-5.472-0.096-1.536 0-2.912 0.032-4.128 0.096-1.152 0-2.208 0.064-3.168 0.192v-1.92c1.344-0.32 2.688-1.12 4.032-2.4s2.624-3.456 3.84-6.528l22.272-57.504h1.632 1.632zm10.08 40.704v1.92h-28.608l0.96-1.92h27.648z" fill="#D9D9D9"/>
</g>
 <g class="groupTwo">
<path d="m522.2 146.5-14.829 39.733-1.601-0.305-0.414-0.079-0.148 0.395-0.229 0.611-17.85-42.199-6e-3 -0.012-5e-3 -0.012c-0.618-1.267-1.236-2.301-1.857-3.09-0.614-0.78-1.253-1.349-1.926-1.653-0.909-0.48-1.747-0.785-2.503-0.881v-0.987c1.443 0.164 2.961 0.303 4.553 0.417h8e-3l9e-3 1e-3c1.799 0.064 3.661 0.096 5.586 0.096 2.186 0 4.371-0.064 6.557-0.193 2.035-0.116 3.939-0.232 5.711-0.349v0.987c-1.361 0.025-2.602 0.153-3.721 0.388-1.308 0.221-2.229 0.938-2.679 2.14l-3e-3 8e-3 -3e-3 9e-3c-0.2 0.599-0.183 1.354-0.017 2.221 0.169 0.875 0.501 1.916 0.988 3.117l11.538 28.38-0.311 0.824-0.414 1.098 1.079-0.462 0.672-0.288 0.451-0.194-0.185-0.454-0.218-0.538 9.247-24.538c0.97-2.586 1.387-4.725 1.18-6.381-0.206-1.715-0.938-3.039-2.227-3.902-1.173-0.844-2.815-1.327-4.873-1.495v-0.923c0.881 0.053 1.694 0.107 2.44 0.16l0.018 1e-3h0.018c0.949 0 1.865 0.032 2.748 0.095l0.018 1e-3h2.706c1.415 0 2.736-0.032 3.962-0.097 1.052-0.052 1.997-0.105 2.834-0.157v0.976c-1.178 0.283-2.251 0.956-3.219 1.982-1.099 1.102-2.12 2.975-3.085 5.549zm-16.204 40.489 0.675 0.129-1.112 1.111-0.014-0.035 0.451-1.205zm-3.306 8.818 2.344-6.253 0.183 0.432 0.525-0.525 0.643-0.644-2.613 6.824c-1e-3 2e-3 -1e-3 3e-3 -1e-3 4e-3 -0.632 1.577-1.289 2.89-1.971 3.942l-5e-3 9e-3 -6e-3 0.01c-0.62 1.054-1.294 1.908-2.019 2.573l-3e-3 3e-3c-0.894 0.834-2.004 1.438-3.342 1.803-1.367 0.372-2.731 0.558-4.093 0.558-1.279 0-2.492-0.243-3.646-0.729l-0.013-5e-3c-1.07-0.416-1.958-1.067-2.67-1.958-0.687-0.859-1.043-1.928-1.043-3.24 0-1.543 0.499-2.75 1.475-3.668 0.977-0.92 2.286-1.4 3.977-1.4 1.506 0 2.736 0.389 3.721 1.14 0.947 0.783 1.443 1.907 1.443 3.448 0 1.053-0.29 1.935-0.856 2.671l-8e-3 0.01-7e-3 0.011c-0.523 0.755-1.221 1.339-2.104 1.751l-1.137 0.531 1.19 0.396c0.24 0.081 0.486 0.122 0.734 0.122h0.48c1.915 0 3.628-0.653 5.122-1.941 1.502-1.231 2.725-3.211 3.699-5.873 0-1e-3 0-1e-3 1e-3 -2e-3z" stroke="#D9D9D9"/>
<path d="m467.2 137.46 0.014 4e-3c1.94 0.501 3.617 1.217 5.036 2.143l8e-3 5e-3c1.478 0.924 2.567 2.019 3.287 3.28l5e-3 8e-3 4e-3 7e-3c0.783 1.264 1.173 2.645 1.173 4.153 0 1.822-0.513 3.186-1.485 4.159-0.982 0.982-2.257 1.485-3.871 1.485-1.629 0-2.951-0.45-3.999-1.324-1.016-0.846-1.549-2.068-1.549-3.744 0-1.562 0.448-2.775 1.305-3.69l5e-3 -5e-3 5e-3 -6e-3c0.9-1.02 1.935-1.665 3.107-1.958l0.654-0.163-0.347-0.579c-0.646-1.078-1.767-1.933-3.289-2.596-1.478-0.737-3.087-1.103-4.82-1.103-1.818 0-3.566 0.473-5.236 1.408l-8e-3 4e-3c-1.617 0.944-3.046 2.381-4.294 4.286-1.254 1.915-2.264 4.369-3.041 7.348l-3e-3 0.01c-0.716 2.993-1.07 6.586-1.07 10.772 0 5.406 0.611 9.762 1.857 13.042l5e-3 0.011c1.304 3.195 3.021 5.532 5.18 6.949 2.127 1.396 4.429 2.098 6.898 2.098 1.599 0 3.223-0.3 4.871-0.892 1.734-0.601 3.357-1.598 4.871-2.979 1.502-1.316 2.814-3.062 3.942-5.222l0.947 0.349c-0.691 1.911-1.734 3.859-3.135 5.844l-6e-3 8e-3c-1.426 2.109-3.321 3.851-5.692 5.223-2.339 1.354-5.224 2.045-8.678 2.045-3.945 0-7.503-0.969-10.684-2.903-3.176-1.93-5.707-4.736-7.589-8.438-1.877-3.754-2.827-8.344-2.827-13.791 0-5.316 0.95-9.91 2.83-13.797 1.947-3.956 4.607-6.986 7.977-9.108 3.37-2.121 7.212-3.187 11.541-3.187 2.132 0 4.165 0.282 6.101 0.844z" stroke="#D9D9D9"/>
<path d="m418.32 137.63 0.011 5e-3 0.011 4e-3c1.603 0.616 2.913 1.473 3.944 2.564l1e-3 1e-3c1.081 1.141 1.844 2.625 2.276 4.474l1e-3 7e-3 2e-3 8e-3c0.496 1.86 0.752 4.403 0.752 7.647v25.728c0 2.713 0.508 4.726 1.694 5.837l5e-3 5e-3 6e-3 5e-3c1.143 1.009 2.913 1.498 5.207 1.559v0.994c-1.086-0.055-2.609-0.109-4.568-0.163-2.31-0.129-4.589-0.193-6.836-0.193-2.184 0-4.367 0.064-6.551 0.193-1.791 0.054-3.218 0.108-4.277 0.163v-0.996c1.983-0.07 3.515-0.564 4.473-1.591 1.037-1.111 1.479-3.111 1.479-5.813v-28.416c0-1.883-0.163-3.582-0.491-5.096-0.339-1.621-1.056-2.937-2.17-3.915-1.151-1.075-2.83-1.569-4.943-1.569-2.47 0-4.685 0.703-6.63 2.111l-6e-3 5e-3c-1.869 1.402-3.358 3.328-4.475 5.759l-2e-3 6e-3c-1.057 2.376-1.579 5.039-1.579 7.979v23.136c0 2.702 0.441 4.702 1.478 5.813l6e-3 7e-3 6e-3 6e-3c1.009 1.009 2.528 1.506 4.462 1.577v0.995c-1.012-0.054-2.407-0.108-4.181-0.161-2.057-0.129-4.209-0.193-6.455-0.193-2.184 0-4.463 0.064-6.837 0.192-2.031 0.055-3.618 0.11-4.759 0.166v-0.996c2.283-0.061 4.027-0.547 5.116-1.564 1.254-1.111 1.796-3.127 1.796-5.842v-30.144c0-2.912-0.482-5.151-1.53-6.622-1.031-1.508-2.884-2.234-5.382-2.318v-0.977c1.869 0.161 3.686 0.241 5.452 0.241 2.19 0 4.223-0.097 6.099-0.291h7e-3l8e-3 -1e-3c1.69-0.226 3.261-0.525 4.714-0.9v9.812l0.961 0.193c1.633-3.895 3.841-6.576 6.595-8.107 2.872-1.56 5.894-2.338 9.072-2.338 2.52 0 4.524 0.348 6.038 1.014z" stroke="#D9D9D9"/>
<path d="m371.95 156.84h-27.987l7e-3 -0.102-0.288-0.48c6e-3 -0.081 0.012-0.161 0.018-0.242h19.066l0.01-0.49c0.065-3.168-0.193-6.088-0.779-8.756-0.586-2.734-1.505-4.953-2.778-6.628-1.31-1.723-3.056-2.598-5.199-2.598-2.963 0-5.5 1.597-7.61 4.631l-1e-3 1e-3c-1.917 2.783-3.11 7.085-3.629 12.84h-4.195l0.058 0.552 0.192 1.824 0.047 0.448h4.01c-0.041 0.617-0.082 1.272-0.123 1.966-0.064 1.034-0.097 2.068-0.097 3.102 0 4.464 0.679 8.25 2.06 11.34 1.372 3.071 3.183 5.422 5.448 7.021l8e-3 5e-3c2.244 1.518 4.548 2.294 6.904 2.294 1.779 0 3.494-0.263 5.145-0.792l0.011-3e-3c1.731-0.599 3.353-1.562 4.869-2.88v1e-3l9e-3 -9e-3c1.438-1.313 2.714-3.054 3.836-5.207l1.046 0.418c-0.75 1.968-1.852 3.916-3.314 5.846-1.553 2.05-3.543 3.731-5.978 5.043-2.413 1.237-5.242 1.863-8.504 1.863-4.402 0-8.214-0.974-11.452-2.904-3.239-1.993-5.735-4.828-7.488-8.522-1.753-3.695-2.64-8.099-2.64-13.226 0-5.643 0.92-10.432 2.739-14.383 1.821-3.956 4.353-6.949 7.589-9.003l2e-3 -1e-3c3.304-2.119 7.113-3.185 11.442-3.185 5.526 0 9.798 1.66 12.885 4.931 3.003 3.183 4.59 8.243 4.661 15.285zm-29.206-0.203 0.121 0.203h-3.082l-0.087-0.824h3.001c-8e-3 0.109-0.016 0.219-0.023 0.329l-0.011 0.157 0.081 0.135z" stroke="#D9D9D9"/>
<path d="m303.27 138.98h-8.332v-0.92h8.832v-14.034c1.82-0.074 3.534-0.229 5.142-0.467l9e-3 -2e-3 8e-3 -1e-3c1.494-0.277 2.897-0.671 4.209-1.185v15.689h13.248v0.92h-13.248v38.228c0 2.658 0.481 4.67 1.565 5.899 1.077 1.22 2.604 1.801 4.503 1.801 1.816 0 3.413-0.739 4.774-2.167 1.354-1.355 2.484-3.548 3.421-6.513l0.913 0.336c-0.769 3.139-2.079 5.802-3.923 8.003l-1e-3 1e-3c-1.801 2.161-4.49 3.276-8.16 3.276-2.135 0-3.893-0.283-5.289-0.83l-0.018-6e-3c-1.405-0.489-2.62-1.218-3.652-2.187-1.341-1.405-2.257-3.084-2.748-5.046-0.498-1.992-0.753-4.666-0.753-8.039v-32.756h-0.5z" stroke="#D9D9D9"/>
<path d="m277.71 137.82 9e-3 5e-3 9e-3 3e-3c1.909 0.764 3.231 1.447 4.007 2.043 0.56 0.441 1.115 0.739 1.658 0.83 0.569 0.096 1.094-0.041 1.536-0.408 0.423-0.351 0.741-0.886 0.984-1.543 0.208-0.563 0.373-1.245 0.498-2.038h1.144c-0.111 1.694-0.195 3.7-0.253 6.015-0.061 2.401-0.093 5.568-0.096 9.497h-1.189c-0.4-2.259-1.059-4.461-1.977-6.603-0.925-2.311-2.317-4.234-4.173-5.76-1.838-1.565-4.233-2.325-7.137-2.325-2.212 0-4.091 0.639-5.602 1.941-1.55 1.272-2.29 3.159-2.29 5.567 0 2.029 0.612 3.806 1.841 5.309 1.188 1.451 2.698 2.795 4.522 4.033l7e-3 4e-3c1.854 1.215 3.837 2.526 5.947 3.933 2.354 1.591 4.45 3.179 6.289 4.764l0.014 0.012c1.876 1.5 3.336 3.181 4.389 5.04l6e-3 0.01c1.099 1.832 1.657 3.981 1.657 6.463 0 2.848-0.772 5.232-2.294 7.18l-6e-3 8e-3c-1.478 1.97-3.451 3.485-5.935 4.542-2.493 0.996-5.243 1.498-8.257 1.498-1.501 0-2.902-0.156-4.204-0.466l-0.011-3e-3 -0.011-2e-3c-1.306-0.249-2.514-0.589-3.627-1.019l-2.059-1.124c-0.637-0.445-1.274-0.859-1.912-1.242-0.381-0.263-0.8-0.414-1.239-0.365-0.447 0.05-0.824 0.296-1.135 0.645-0.551 0.62-0.933 1.614-1.193 2.904h-1.166c0.113-1.952 0.198-4.278 0.257-6.977 0.062-2.847 0.094-6.589 0.096-11.223h1.173c0.451 3.366 1.11 6.357 1.981 8.97 0.917 2.753 2.271 4.946 4.078 6.552l7e-3 6e-3 8e-3 6e-3c1.907 1.567 4.463 2.322 7.613 2.322 1.288 0 2.57-0.271 3.842-0.807l0.01-4e-3 0.01-5e-3c1.305-0.618 2.366-1.579 3.18-2.865 0.904-1.325 1.33-3.064 1.33-5.171 0-2.946-1.044-5.386-3.134-7.277-1.946-1.88-4.464-3.848-7.547-5.903-2.168-1.531-4.241-3.029-6.218-4.496-1.878-1.504-3.406-3.159-4.589-4.963-1.156-1.827-1.744-4.002-1.744-6.545 0-2.799 0.652-5.056 1.918-6.806 1.348-1.776 3.126-3.096 5.347-3.96l0.011-4e-3c2.24-0.934 4.639-1.402 7.2-1.402 2.507 0 4.642 0.408 6.42 1.204z" stroke="#D9D9D9"/>
<path d="m240.82 115.55 9e-3 9e-3c1.237 1.118 1.852 2.518 1.852 4.237 0 1.717-0.615 3.153-1.856 4.337-1.243 1.122-2.782 1.691-4.652 1.691-1.871 0-3.41-0.569-4.652-1.691-1.242-1.184-1.856-2.62-1.856-4.337 0-1.719 0.615-3.119 1.851-4.237l0.01-9e-3c1.244-1.185 2.781-1.782 4.647-1.782 1.865 0 3.403 0.597 4.647 1.782zm0.613 21.506v41.012c0 2.713 0.509 4.726 1.694 5.837l5e-3 5e-3 6e-3 5e-3c1.144 1.009 2.913 1.498 5.207 1.558v0.995c-1.085-0.055-2.609-0.109-4.567-0.164-2.248-0.128-4.559-0.192-6.933-0.192-2.248 0-4.558 0.064-6.932 0.192-2.031 0.055-3.619 0.11-4.76 0.165v-0.996c2.283-0.06 4.028-0.546 5.116-1.563 1.254-1.111 1.796-3.127 1.796-5.842v-30.144c0-2.913-0.481-5.151-1.53-6.622-1.031-1.508-2.883-2.234-5.382-2.318v-0.977c1.869 0.161 3.687 0.241 5.452 0.241 2.19 0 4.224-0.097 6.099-0.291h8e-3l7e-3 -1e-3c1.69-0.226 3.262-0.525 4.714-0.9z" stroke="#D9D9D9"/>
<path d="m205.52 137.82 9e-3 5e-3 0.01 3e-3c1.908 0.764 3.231 1.447 4.007 2.043 0.56 0.441 1.114 0.739 1.658 0.83 0.568 0.096 1.094-0.041 1.536-0.408 0.422-0.351 0.74-0.886 0.984-1.543 0.208-0.563 0.372-1.245 0.497-2.038h1.144c-0.11 1.694-0.194 3.7-0.252 6.015-0.062 2.401-0.094 5.568-0.096 9.497h-1.19c-0.4-2.259-1.059-4.461-1.976-6.603-0.926-2.311-2.317-4.234-4.174-5.76-1.838-1.565-4.233-2.325-7.136-2.325-2.213 0-4.092 0.639-5.602 1.941-1.551 1.272-2.29 3.159-2.29 5.567 0 2.029 0.611 3.806 1.841 5.309 1.187 1.451 2.697 2.795 4.522 4.033l7e-3 4e-3c1.854 1.215 3.836 2.526 5.947 3.933 2.354 1.591 4.449 3.179 6.288 4.764l0.014 0.012c1.876 1.5 3.336 3.181 4.39 5.04h-1e-3l7e-3 0.01c1.099 1.832 1.657 3.981 1.657 6.463 0 2.848-0.772 5.232-2.294 7.18l-6e-3 8e-3c-1.478 1.97-3.451 3.485-5.935 4.542-2.493 0.996-5.244 1.498-8.257 1.498-1.502 0-2.902-0.156-4.205-0.466l-0.011-3e-3 -0.011-2e-3c-1.305-0.249-2.514-0.589-3.626-1.019l-2.06-1.124c-0.636-0.444-1.274-0.859-1.912-1.242-0.38-0.263-0.799-0.414-1.239-0.365-0.446 0.05-0.824 0.296-1.134 0.645-0.551 0.62-0.933 1.614-1.193 2.904h-1.166c0.112-1.952 0.198-4.278 0.257-6.977 0.061-2.847 0.093-6.589 0.096-11.223h1.173c0.45 3.366 1.109 6.357 1.98 8.97 0.918 2.753 2.272 4.946 4.078 6.552l8e-3 6e-3 7e-3 6e-3c1.907 1.567 4.464 2.322 7.614 2.322 1.288 0 2.57-0.271 3.842-0.807l0.01-4e-3 0.01-5e-3c1.305-0.618 2.365-1.579 3.18-2.865 0.903-1.325 1.33-3.064 1.33-5.171 0-2.946-1.044-5.386-3.135-7.277-1.946-1.88-4.464-3.848-7.546-5.903-2.169-1.531-4.241-3.029-6.218-4.496-1.879-1.504-3.407-3.159-4.589-4.963-1.157-1.827-1.744-4.002-1.744-6.545 0-2.799 0.652-5.056 1.917-6.806 1.349-1.776 3.126-3.096 5.348-3.96l0.011-4e-3c2.24-0.934 4.638-1.402 7.2-1.402 2.507 0 4.642 0.408 6.419 1.204z" stroke="#D9D9D9"/>
<path d="m162.85 137.63 0.011 5e-3 0.011 4e-3c1.603 0.616 2.914 1.473 3.944 2.564l1e-3 1e-3c1.081 1.141 1.844 2.625 2.276 4.474l2e-3 7e-3 2e-3 8e-3c0.496 1.86 0.751 4.403 0.751 7.647v25.728c0 2.713 0.509 4.726 1.694 5.837l5e-3 5e-3 6e-3 5e-3c1.144 1.009 2.913 1.498 5.207 1.559v0.994c-1.086-0.055-2.609-0.109-4.567-0.163-2.311-0.129-4.59-0.193-6.837-0.193-2.184 0-4.367 0.064-6.55 0.193-1.792 0.054-3.219 0.108-4.278 0.163v-0.996c1.984-0.07 3.515-0.564 4.473-1.591 1.037-1.111 1.479-3.111 1.479-5.813v-28.416c0-1.883-0.162-3.582-0.491-5.096-0.338-1.621-1.056-2.937-2.17-3.915-1.151-1.075-2.83-1.569-4.943-1.569-2.47 0-4.685 0.703-6.629 2.111h-1e-3l-6e-3 5e-3c-1.869 1.402-3.358 3.328-4.475 5.759l-2e-3 6e-3c-1.056 2.376-1.579 5.039-1.579 7.979v23.136c0 2.702 0.441 4.702 1.478 5.813l6e-3 7e-3 6e-3 6e-3c1.009 1.009 2.528 1.506 4.462 1.577v0.995c-1.012-0.054-2.406-0.108-4.181-0.161-2.057-0.129-4.209-0.193-6.455-0.193-2.184 0-4.463 0.064-6.836 0.192-2.031 0.055-3.619 0.11-4.76 0.166v-0.996c2.283-0.061 4.028-0.547 5.116-1.564 1.254-1.111 1.796-3.127 1.796-5.842v-30.144c0-2.912-0.481-5.151-1.53-6.622-1.031-1.508-2.883-2.234-5.382-2.318v-0.977c1.869 0.161 3.687 0.241 5.452 0.241 2.19 0 4.224-0.097 6.099-0.291h8e-3l7e-3 -1e-3c1.69-0.226 3.262-0.525 4.714-0.9v9.812l0.961 0.193c1.633-3.895 3.841-6.576 6.596-8.107 2.872-1.56 5.893-2.338 9.071-2.338 2.52 0 4.524 0.348 6.038 1.014z" stroke="#D9D9D9"/>
<path d="m85.652 181.1 0.0018 3e-3c2.1717 3.817 5.0348 5.821 8.5946 5.821 3.4991 0 6.3286-2.007 8.4976-5.819 2.245-3.896 3.33-10.184 3.33-18.777 0-8.591-1.085-14.877-3.328-18.773-2.165-3.934-4.9927-6.015-8.4996-6.015-3.5681 0-6.4296 2.077-8.5973 6.018-2.1771 3.893-3.2307 10.178-3.2307 18.77 0 8.593 1.0538 14.879 3.2316 18.772zm8.5964-44.48c4.2165 0 7.9406 0.881 11.187 2.628 3.227 1.738 5.817 4.474 7.761 8.238 1.935 3.745 2.92 8.681 2.92 14.842 0 6.16-0.985 11.096-2.919 14.841-1.943 3.698-4.531 6.402-7.758 8.141-3.247 1.685-6.9727 2.534-11.191 2.534-4.1525 0-7.8802-0.848-11.194-2.536-3.29-1.739-5.9077-4.442-7.8494-8.136-1.8718-3.746-2.8249-8.684-2.8249-14.844 0-6.161 0.9534-11.099 2.8257-14.845 1.9432-3.76 4.5622-6.495 7.8518-8.233 3.313-1.75 7.0395-2.63 11.19-2.63z" stroke="#D9D9D9"/>
<path d="m47.64 120.06-0.0064-3e-3c-2.5988-1.237-5.9744-1.871-10.153-1.871-6.1235 0-11.5 1.482-16.148 4.434-4.6544 2.956-8.3395 7.078-11.054 12.38-2.6466 5.294-3.9782 11.486-3.9782 18.59 0 7.237 1.3014 13.396 3.8821 18.494 2.5831 5.103 6.1978 8.997 10.845 11.698 4.6484 2.701 10.095 4.06 16.357 4.06 4.1157 0 7.4282-0.602 9.9637-1.777 2.6624-1.268 5.1652-2.725 7.5088-4.372l0.0094-7e-3 0.0097-6e-3c0.7311-0.465 1.4099-0.761 2.0202-0.82 0.6391-0.062 1.1984 0.139 1.6029 0.627 0.3995 0.445 0.6935 1.147 0.9213 2.026 0.2074 0.8 0.3721 1.797 0.497 2.985h1.2296c-0.1154-2.4-0.2029-5.271-0.2625-8.611-0.0623-3.548-0.0943-8.153-0.096-13.813h-1.2599c-0.442 3.962-1.0054 7.14-1.6947 9.523-0.6611 2.443-1.9138 4.651-3.7473 6.62-1.724 2.247-4.0375 3.925-6.922 5.039l-0.0093 4e-3c-2.8631 1.041-5.641 1.566-8.3309 1.566-3.2839 0-6.2839-0.789-8.9886-2.372l-0.0063-4e-3 -0.0061-4e-3c-2.6303-1.644-4.8888-3.94-6.7793-6.873l-0.0069-0.011h1e-4c-1.824-2.997-3.2176-6.535-4.1873-10.608l-4e-4 -2e-3c-0.9702-4.139-1.4532-8.722-1.4532-13.746 0-4.894 0.4508-9.411 1.3555-13.547 0.9042-4.133 2.1991-7.733 3.891-10.791l0.0039-7e-3c1.7604-3.064 3.9234-5.432 6.496-7.082 2.5845-1.721 5.5616-2.577 8.9136-2.577 3.066 0 5.9746 0.522 8.722 1.569 2.7672 1.054 5.1071 2.767 7.0148 5.13 1.171 1.238 2.0916 2.518 2.754 3.841 0.7292 1.328 1.2855 2.906 1.6763 4.727 0.4295 1.719 0.8569 3.896 1.283 6.525h1.282c0.0018-5.464 0.0338-9.845 0.096-13.141l0.4999 9e-3c0.0597-3.222 0.1472-6 0.2625-8.332l-14.007 0.53zl0.0065 3e-3c2.7181 1.201 5.1132 2.621 7.1887 4.256h-1e-4l0.0095 7e-3c0.6688 0.502 1.3106 0.831 1.9139 0.912 0.6389 0.085 1.2027-0.115 1.6354-0.591m-10.754-4.587 13.506-0.53h-1.2292c-0.1266 1.192-0.2996 2.199-0.5223 3.016-0.2473 0.906-0.5692 1.63-1.0011 2.101m0 0c-3e-4 0-5e-4 1e-3 -7e-4 1e-3l-0.3686-0.338 0.37 0.336c-3e-4 1e-3 -5e-4 1e-3 -7e-4 1e-3z" stroke="#D9D9D9"/>
</g>
<g class="groupOne">
<path d="m955.55 0.73608v64.8c0 2.88 0.48 5.024 1.44 6.432 1.024 1.344 2.848 2.016 5.472 2.016v2.016c-1.984-0.192-3.968-0.288-5.952-0.288-2.176 0-4.224 0.096-6.144 0.288-1.856 0.192-3.584 0.544-5.184 1.056v-64.8c0-2.88-0.512-4.992-1.536-6.336-0.96-1.408-2.752-2.112-5.376-2.112v-2.016c2.048 0.192 4.032 0.288 5.952 0.288 2.112 0 4.128-0.096 6.048-0.288 1.92-0.25599 3.68-0.60799 5.28-1.056zm-21.6 24.384c2.816 0 5.376 0.608 7.68 1.824 2.368 1.216 4.032 3.264 4.992 6.144l-1.152 1.056c-0.896-2.304-2.208-3.968-3.936-4.992-1.728-1.088-3.68-1.632-5.856-1.632-3.648 0-6.624 1.952-8.928 5.856-2.304 3.84-3.424 9.792-3.36 17.856 0 5.312 0.448 9.664 1.344 13.056 0.896 3.328 2.208 5.792 3.936 7.392 1.792 1.6 3.936 2.4 6.432 2.4s4.736-1.056 6.72-3.168c2.048-2.112 3.264-5.152 3.648-9.12l0.864 2.016c-0.64 4.352-2.176 7.712-4.608 10.08-2.432 2.304-5.696 3.456-9.792 3.456-3.904 0-7.36-0.928-10.368-2.784-2.944-1.92-5.216-4.8-6.816-8.64-1.6-3.904-2.4-8.8-2.4-14.688 0-5.824 0.96-10.656 2.88-14.496 1.984-3.904 4.608-6.816 7.872-8.736s6.88-2.88 10.848-2.88z" fill="#D9D9D9"/>
<path d="m886.19 25.12c2.56 0 4.64 0.352 6.24 1.056 1.664 0.64 3.04 1.536 4.128 2.688 1.152 1.216 1.952 2.784 2.4 4.704 0.512 1.92 0.768 4.512 0.768 7.776v25.728c0 2.688 0.512 4.512 1.536 5.472 1.088 0.96 2.88 1.44 5.376 1.44v2.016c-1.088-0.064-2.784-0.128-5.088-0.192-2.304-0.128-4.576-0.192-6.816-0.192-2.176 0-4.352 0.064-6.528 0.192-2.112 0.064-3.712 0.128-4.8 0.192v-2.016c2.176 0 3.712-0.48 4.608-1.44s1.344-2.784 1.344-5.472v-28.416c0-1.856-0.16-3.52-0.48-4.992-0.32-1.536-0.992-2.752-2.016-3.648-1.024-0.96-2.56-1.44-4.608-1.44-2.368 0-4.48 0.672-6.336 2.016-1.792 1.344-3.232 3.2-4.32 5.568-1.024 2.304-1.536 4.896-1.536 7.776v23.136c0 2.688 0.448 4.512 1.344 5.472 0.96 0.96 2.496 1.44 4.608 1.44v2.016c-1.024-0.064-2.592-0.128-4.704-0.192-2.048-0.128-4.192-0.192-6.432-0.192-2.176 0-4.448 0.064-6.816 0.192-2.368 0.064-4.128 0.128-5.28 0.192v-2.016c2.496 0 4.256-0.48 5.28-1.44 1.088-0.96 1.632-2.784 1.632-5.472v-30.144c0-2.88-0.48-4.992-1.44-6.336-0.96-1.408-2.784-2.112-5.472-2.112v-2.016c2.048 0.192 4.032 0.288 5.952 0.288 2.176 0 4.192-0.096 6.048-0.288 1.92-0.256 3.68-0.608 5.28-1.056v10.464c1.664-3.968 3.936-6.752 6.816-8.352 2.944-1.6 6.048-2.4 9.312-2.4z" fill="#D9D9D9"/>
<path d="m817.85 76.672c-2.688 0-4.992-0.512-6.912-1.536s-3.36-2.432-4.32-4.224-1.44-3.84-1.44-6.144c0-2.816 0.64-5.088 1.92-6.816 1.28-1.792 2.912-3.232 4.896-4.32 2.048-1.088 4.192-1.984 6.432-2.688 2.304-0.768 4.448-1.472 6.432-2.112 2.048-0.704 3.712-1.504 4.992-2.4 1.344-0.896 2.016-2.08 2.016-3.552v-6.528c0-2.304-0.384-4.128-1.152-5.472-0.704-1.408-1.696-2.4-2.976-2.976-1.216-0.576-2.688-0.864-4.416-0.864-1.472 0-3.04 0.224-4.704 0.672-1.664 0.384-2.976 1.184-3.936 2.4 1.408 0.384 2.56 1.152 3.456 2.304 0.96 1.088 1.44 2.464 1.44 4.128 0 1.792-0.608 3.2-1.824 4.224-1.152 1.024-2.624 1.536-4.416 1.536-1.984 0-3.456-0.608-4.416-1.824-0.96-1.28-1.44-2.752-1.44-4.416 0-1.728 0.416-3.136 1.248-4.224 0.896-1.088 2.048-2.112 3.456-3.072 1.536-1.024 3.488-1.888 5.856-2.592 2.432-0.704 5.12-1.056 8.064-1.056 2.752 0 5.12 0.32 7.104 0.96 2.048 0.576 3.744 1.536 5.088 2.88 1.6 1.472 2.656 3.328 3.168 5.568 0.512 2.176 0.768 4.832 0.768 7.968v26.496c0 1.6 0.192 2.752 0.576 3.456 0.448 0.64 1.152 0.96 2.112 0.96 0.64 0 1.248-0.16 1.824-0.48 0.64-0.32 1.376-0.8 2.208-1.44l0.96 1.632c-1.344 1.088-2.72 1.952-4.128 2.592-1.344 0.64-3.072 0.96-5.184 0.96-2.048 0-3.712-0.32-4.992-0.96s-2.24-1.568-2.88-2.784c-0.576-1.216-0.864-2.72-0.864-4.512-1.664 2.688-3.648 4.736-5.952 6.144s-4.992 2.112-8.064 2.112zm4.608-4.608c1.792 0 3.456-0.512 4.992-1.536 1.6-1.024 3.072-2.56 4.416-4.608v-19.104c-0.704 1.024-1.728 1.92-3.072 2.688-1.344 0.704-2.784 1.44-4.32 2.208s-3.008 1.664-4.416 2.688c-1.344 0.96-2.464 2.208-3.36 3.744s-1.344 3.488-1.344 5.856c0 2.496 0.64 4.48 1.92 5.952 1.28 1.408 3.008 2.112 5.184 2.112z" fill="#D9D9D9"/>
</g>
 <g class="groupTwo">
<path d="m762.48 26.634 0.011 0.0047 0.011 0.0043c1.603 0.6165 2.914 1.4734 3.944 2.5646l1e-3 6e-4c1.081 1.141 1.844 2.6247 2.276 4.4737l2e-3 0.0077 2e-3 0.0076c0.496 1.8597 0.751 4.4026 0.751 7.6471v25.728c0 2.713 0.509 4.7258 1.694 5.8368l5e-3 0.0051 6e-3 5e-3c1.144 1.0093 2.913 1.4979 5.207 1.5586v0.9946c-1.086-0.0547-2.609-0.1093-4.567-0.1637-2.311-0.1282-4.59-0.1924-6.837-0.1924-2.184 0-4.367 0.0642-6.55 0.1925-1.792 0.0543-3.219 0.1087-4.278 0.1633v-0.9963c1.984-0.0694 3.515-0.5639 4.473-1.5903 1.037-1.1109 1.479-3.1111 1.479-5.8132v-28.416c0-1.8828-0.162-3.5826-0.491-5.0958-0.338-1.6216-1.056-2.9376-2.17-3.9149-1.151-1.0755-2.83-1.5693-4.943-1.5693-2.47 0-4.685 0.7031-6.629 2.1111v-1e-4l-7e-3 5e-3c-1.869 1.4015-3.357 3.3281-4.475 5.7593l-2e-3 0.0056c-1.056 2.3765-1.579 5.0391-1.579 7.9791v23.136c0 2.702 0.441 4.7023 1.478 5.8132l6e-3 0.0063 6e-3 0.0061c1.009 1.0091 2.528 1.506 4.462 1.5774v0.9954c-1.012-0.0542-2.406-0.1081-4.181-0.1619-2.057-0.1284-4.209-0.1925-6.455-0.1925-2.184 0-4.463 0.0642-6.836 0.1924-2.031 0.0549-3.619 0.1099-4.76 0.1651v-0.996c2.283-0.0606 4.028-0.5469 5.116-1.5636 1.254-1.111 1.796-3.1268 1.796-5.8419v-30.144c0-2.9125-0.481-5.1507-1.53-6.6222-1.031-1.5076-2.883-2.2339-5.382-2.3176v-0.9772c1.869 0.1606 3.687 0.241 5.452 0.241 2.19 0 4.224-0.0966 6.099-0.2906l8e-3 -8e-4 7e-3 -1e-3c1.69-0.2253 3.262-0.5249 4.714-0.8994v9.8118l0.961 0.1934c1.634-3.8955 3.841-6.5761 6.596-8.1072 2.872-1.5605 5.893-2.3382 9.071-2.3382 2.52 0 4.524 0.3474 6.038 1.0137z" stroke="#D9D9D9"/>
<path d="m685.28 70.1 2e-3 0.0032c2.172 3.817 5.035 5.8207 8.594 5.8207 3.5 0 6.329-2.0075 8.498-5.8195 2.245-3.8956 3.33-10.184 3.33-18.776 0-8.5906-1.085-14.878-3.328-18.773-2.165-3.9343-4.993-6.0148-8.5-6.0148-3.568 0-6.429 2.0772-8.597 6.0175-2.177 3.8937-3.231 10.179-3.231 18.77 0 8.5929 1.054 14.878 3.232 18.772zm8.596-44.48c4.217 0 7.941 0.8805 11.187 2.6283 3.227 1.7376 5.817 4.4735 7.761 8.2372 1.935 3.7449 2.92 8.6819 2.92 14.842 0 6.1599-0.985 11.096-2.919 14.841-1.943 3.6974-4.531 6.4022-7.758 8.1409-3.247 1.6849-6.973 2.534-11.191 2.534-4.152 0-7.88-0.8485-11.193-2.5358-3.29-1.739-5.908-4.4427-7.85-8.1363-1.871-3.7461-2.825-8.6838-2.825-14.844 0-6.1609 0.954-11.099 2.826-14.845 1.943-3.7597 4.562-6.4945 7.852-8.2325 3.313-1.7502 7.039-2.6301 11.19-2.6301z" stroke="#D9D9D9"/>
<path d="m657.26 4.554v1.2e-4l0.01 0.00858c1.236 1.1186 1.851 2.5186 1.851 4.2372 0 1.717-0.614 3.1527-1.856 4.3375-1.242 1.1218-2.781 1.6905-4.652 1.6905-1.87 0-3.409-0.5687-4.652-1.6905-1.241-1.1848-1.856-2.6205-1.856-4.3375 0-1.7186 0.615-3.1186 1.852-4.2372v1.2e-4l9e-3 -0.00882c1.244-1.185 2.782-1.7821 4.647-1.7821 1.866 0 3.403 0.59711 4.647 1.7821zm0.613 21.506v41.012c0 2.713 0.509 4.7257 1.694 5.8367l6e-3 0.0052 6e-3 5e-3c1.143 1.0092 2.913 1.4979 5.206 1.5586v0.9946c-1.085-0.0548-2.608-0.1093-4.567-0.1637-2.247-0.1283-4.558-0.1924-6.933-0.1924-2.247 0-4.558 0.0641-6.932 0.1923-2.031 0.055-3.618 0.11-4.76 0.1651v-0.9959c2.283-0.0606 4.028-0.5469 5.117-1.5637 1.254-1.111 1.795-3.1268 1.795-5.8418v-30.144c0-2.9125-0.481-5.1507-1.53-6.6222-1.03-1.5076-2.883-2.2339-5.382-2.3176v-0.9773c1.87 0.1606 3.687 0.2411 5.452 0.2411 2.191 0 4.224-0.0967 6.1-0.2907l7e-3 -7e-4 7e-3 -1e-3c1.691-0.2254 3.262-0.5249 4.714-0.8995z" stroke="#D9D9D9"/>
<path d="m613.68 27.98h-8.332v-0.92h8.832v-14.034c1.819-0.0738 3.533-0.2294 5.141-0.4676l9e-3 -0.0013 9e-3 -0.0016c1.493-0.2765 2.896-0.671 4.209-1.1845v15.689h13.248v0.92h-13.248v38.228c0 2.6577 0.48 4.67 1.565 5.8988 1.076 1.2202 2.604 1.8012 4.503 1.8012 1.815 0 3.412-0.7391 4.773-2.1668 1.354-1.3556 2.484-3.5479 3.421-6.5135l0.913 0.3365c-0.769 3.1384-2.079 5.802-3.923 8.0027v1e-3c-1.802 2.1615-4.491 3.2761-8.16 3.2761-2.136 0-3.894-0.2831-5.29-0.8296l-9e-3 -0.0035-9e-3 -0.0031c-1.404-0.4884-2.62-1.2176-3.652-2.1869-1.341-1.405-2.257-3.0836-2.747-5.0461-0.498-1.9919-0.753-4.6662-0.753-8.0388v-32.756h-0.5z" stroke="#D9D9D9"/>
<path d="m561.96 58.25v1e-4l5e-3 -0.0071c1.235-1.7282 2.808-3.1179 4.727-4.1706 2.02-1.0727 4.134-1.9564 6.344-2.651v1e-4l9e-3 -0.0027c2.302-0.7676 4.445-1.4711 6.427-2.1105v1e-4l9e-3 -0.0031c2.074-0.713 3.783-1.5305 5.112-2.4601 1.464-0.9777 2.234-2.3091 2.234-3.9648v-6.528c0-2.345-0.389-4.2617-1.211-5.7079-0.748-1.4898-1.816-2.5665-3.208-3.194-1.298-0.614-2.846-0.9101-4.625-0.9101-1.52 0-3.13 0.2309-4.826 0.6869-1.758 0.4076-3.171 1.263-4.207 2.5753l-0.468 0.5933 0.729 0.1989c1.304 0.3555 2.363 1.062 3.193 2.1286l9e-3 0.0122 0.011 0.0116c0.867 0.9833 1.315 2.236 1.315 3.7972 0 1.6656-0.559 2.9253-1.647 3.8416v-2e-4l-0.01 0.0089c-1.045 0.9296-2.393 1.4097-4.083 1.4097-1.875 0-3.181-0.5687-4.02-1.629-0.89-1.1886-1.336-2.5527-1.336-4.111 0-1.6434 0.393-2.9339 1.139-3.9132 0.86-1.0416 1.971-2.032 3.344-2.9682 1.482-0.9879 3.384-1.833 5.717-2.5268 2.38-0.6887 5.02-1.0358 7.924-1.0358 2.715 0 5.029 0.3161 6.95 0.9359l9e-3 0.0029 9e-3 0.0025c1.976 0.5557 3.594 1.4758 4.87 2.7523l7e-3 0.0073 8e-3 0.0071c1.521 1.3995 2.528 3.1641 3.019 5.3114l1e-3 0.0031c0.5 2.1269 0.755 4.7419 0.755 7.8535v26.496c0 1.616 0.189 2.8755 0.637 3.6954l0.013 0.0245 0.016 0.0229c0.563 0.8048 1.441 1.1732 2.522 1.1732 0.724 0 1.412-0.1811 2.057-0.5376 0.553-0.2774 1.162-0.6615 1.827-1.1468l0.456 0.7752c-1.207 0.9387-2.435 1.6904-3.683 2.258l-8e-3 0.0038c-1.255 0.5975-2.903 0.9114-4.969 0.9114-2.002 0-3.582-0.3136-4.769-0.9072s-2.067-1.4455-2.656-2.5604c-0.533-1.1292-0.811-2.5519-0.811-4.2884v-1.7576l-0.926 1.4944c-1.629 2.6328-3.561 4.6199-5.787 5.9806-2.215 1.3537-4.81 2.0386-7.803 2.0386-2.625 0-4.845-0.4998-6.677-1.4772-1.839-0.9809-3.205-2.3203-4.115-4.0189-0.916-1.7102-1.38-3.6751-1.38-5.9079 0-2.7419 0.622-4.8997 1.821-6.5184zm23.955-11.717c-0.651 0.9467-1.61 1.794-2.901 2.5326-1.338 0.7011-2.773 1.4342-4.303 2.1994-1.56 0.7802-3.055 1.6902-4.485 2.7296-1.405 1.004-2.571 2.306-3.499 3.8977-0.953 1.6337-1.412 3.6798-1.412 6.1079 0 2.582 0.663 4.694 2.042 6.2801v1e-4l8e-3 0.0082c1.388 1.5276 3.259 2.2756 5.554 2.2756 1.892 0 3.651-0.5421 5.265-1.6173 1.672-1.0712 3.19-2.6635 4.561-4.7524l0.082-0.1249v-20.863l-0.912 1.3266z" stroke="#D9D9D9"/>
<path d="m509.52 28.018v-1.011c1.364 0.113 2.752 0.2261 4.165 0.3391l0.01 8e-4 0.01 4e-4c1.672 0.0643 3.502 0.0964 5.491 0.0964 1.99 0 4.075-0.0321 6.255-0.0962v2e-4l0.014-8e-4c2.036-0.1163 3.939-0.2327 5.711-0.349v0.9852c-1.357 0.0188-2.593 0.1151-3.706 0.2907l-4e-3 7e-4c-1.297 0.2163-2.227 0.8898-2.686 2.0355l-3e-3 0.0087-3e-3 0.0088c-0.2 0.5594-0.213 1.2696-0.096 2.0869 0.118 0.8263 0.376 1.8108 0.766 2.9475l3e-3 0.0112 5e-3 0.011 11.491 28.962-0.454 1.2048 0.821 0.5301 0.768-0.768 0.232-0.2325-0.121-0.3055-0.174-0.438 9.297-24.641 1e-3 -9e-4c0.969-2.5855 1.386-4.7247 1.18-6.3808-0.206-1.7145-0.939-3.039-2.227-3.9016-1.17-0.8414-2.778-1.3251-4.778-1.4946v-0.9239c0.881 0.0534 1.695 0.1067 2.441 0.16l0.018 0.0013h0.017c0.95 0 1.833 0.0317 2.65 0.0945l0.019 0.0015h2.803c1.416 0 2.736-0.0321 3.962-0.0966 1.052-0.0526 1.997-0.1053 2.834-0.158v0.9763c-1.183 0.2821-2.286 0.9536-3.309 1.9768-1.105 1.1048-2.094 2.9826-2.997 5.5596l-15.045 40.374h-2.485l-17.345-42.218c-0.519-1.2663-1.047-2.3007-1.585-3.0916-0.53-0.7775-1.094-1.3563-1.708-1.6688-0.795-0.4752-1.544-0.7842-2.238-0.8875z" stroke="#D9D9D9"/>
<path d="m475.09 70.1 2e-3 0.0032c2.172 3.817 5.035 5.8207 8.595 5.8207 3.499 0 6.329-2.0075 8.498-5.8195 2.244-3.8956 3.33-10.184 3.33-18.776 0-8.5906-1.085-14.878-3.328-18.773-2.165-3.9343-4.993-6.0148-8.5-6.0148-3.568 0-6.43 2.0772-8.597 6.0175-2.178 3.8937-3.231 10.179-3.231 18.77 0 8.5929 1.054 14.878 3.231 18.772zm8.597-44.48c4.216 0 7.941 0.8805 11.187 2.6283 3.227 1.7376 5.816 4.4735 7.761 8.2372 1.935 3.7449 2.92 8.6819 2.92 14.842 0 6.1599-0.985 11.096-2.92 14.841-1.943 3.6974-4.53 6.4022-7.758 8.1409-3.246 1.6849-6.972 2.534-11.19 2.534-4.153 0-7.88-0.8485-11.194-2.5358-3.29-1.739-5.907-4.4427-7.849-8.1363-1.872-3.7461-2.825-8.6838-2.825-14.844 0-6.1609 0.953-11.099 2.826-14.845 1.943-3.7597 4.562-6.4945 7.851-8.2325 3.313-1.7502 7.04-2.6301 11.191-2.6301z" stroke="#D9D9D9"/>
<path d="m441.29 26.634 0.011 0.0047 0.011 0.0043c1.603 0.6165 2.913 1.4735 3.944 2.5646v6e-4c1.081 1.141 1.845 2.6247 2.276 4.4737l2e-3 0.0077 2e-3 0.0076c0.496 1.8597 0.751 4.4026 0.751 7.6471v25.728c0 2.713 0.509 4.7258 1.694 5.8368l6e-3 0.0051 5e-3 5e-3c1.144 1.0093 2.914 1.4979 5.207 1.5586v0.9946c-1.085-0.0547-2.608-0.1093-4.567-0.1637-2.31-0.1282-4.589-0.1924-6.837-0.1924-2.183 0-4.367 0.0642-6.55 0.1925-1.792 0.0543-3.218 0.1087-4.278 0.1633v-0.9963c1.984-0.0694 3.516-0.5639 4.474-1.5903 1.037-1.1109 1.478-3.1112 1.478-5.8132v-28.416c0-1.8828-0.162-3.5826-0.491-5.0958-0.338-1.6216-1.055-2.9376-2.169-3.9149-1.152-1.0755-2.83-1.5693-4.944-1.5693-2.469 0-4.685 0.7031-6.629 2.1111v-1e-4l-7e-3 5e-3c-1.868 1.4015-3.357 3.3281-4.474 5.7593l-3e-3 0.0056c-1.056 2.3765-1.579 5.0391-1.579 7.9791v23.136c0 2.702 0.442 4.7023 1.479 5.8132l6e-3 0.0063 6e-3 0.0061c1.009 1.0091 2.528 1.506 4.461 1.5774v0.9954c-1.012-0.0542-2.406-0.1081-4.181-0.1619-2.056-0.1284-4.208-0.1925-6.455-0.1925-2.183 0-4.462 0.0642-6.836 0.1924-2.031 0.0549-3.618 0.1099-4.76 0.1651v-0.996c2.283-0.0606 4.028-0.5469 5.117-1.5636 1.254-1.111 1.795-3.1268 1.795-5.8419v-30.144c0-2.9125-0.481-5.1507-1.53-6.6222-1.03-1.5076-2.883-2.2339-5.382-2.3176v-0.9772c1.87 0.1606 3.687 0.241 5.452 0.241 2.191 0 4.224-0.0966 6.1-0.2906l7e-3 -8e-4 7e-3 -1e-3c1.691-0.2253 3.262-0.5249 4.714-0.8994v9.8118l0.961 0.1934c1.634-3.8955 3.841-6.5761 6.596-8.1072 2.872-1.5605 5.894-2.3382 9.071-2.3382 2.52 0 4.525 0.3474 6.039 1.0137z" stroke="#D9D9D9"/>
<path d="m383.44 26.634 0.011 0.0047 0.011 0.0043c1.603 0.6165 2.913 1.4735 3.944 2.5646l1e-3 6e-4c1.081 1.141 1.844 2.6247 2.276 4.4737l1e-3 0.0077 2e-3 0.0076c0.496 1.8597 0.752 4.4026 0.752 7.6471v25.728c0 2.713 0.508 4.7258 1.694 5.8368l5e-3 0.0051 6e-3 5e-3c1.143 1.0093 2.913 1.4979 5.207 1.5586v0.9946c-1.086-0.0547-2.609-0.1093-4.568-0.1637-2.31-0.1282-4.589-0.1924-6.836-0.1924-2.184 0-4.367 0.0642-6.551 0.1925-1.791 0.0543-3.218 0.1087-4.277 0.1633v-0.9963c1.983-0.0694 3.515-0.5639 4.473-1.5903 1.037-1.1109 1.479-3.1112 1.479-5.8132v-28.416c0-1.8828-0.163-3.5826-0.491-5.0958-0.339-1.6216-1.056-2.9376-2.17-3.9149-1.151-1.0755-2.83-1.5693-4.943-1.5693-2.47 0-4.685 0.7031-6.63 2.1111v-1e-4l-6e-3 5e-3c-1.869 1.4015-3.358 3.3281-4.475 5.7593l-2e-3 0.0056c-1.057 2.3765-1.579 5.0391-1.579 7.9791v23.136c0 2.702 0.441 4.7023 1.478 5.8132l6e-3 0.0063 6e-3 0.0061c1.009 1.0091 2.528 1.506 4.462 1.5774v0.9954c-1.012-0.0542-2.407-0.1081-4.181-0.1619-2.057-0.1284-4.209-0.1925-6.455-0.1925-2.184 0-4.463 0.0642-6.837 0.1924-2.031 0.0549-3.618 0.1099-4.759 0.1651v-0.996c2.283-0.0606 4.027-0.5469 5.116-1.5636 1.254-1.111 1.796-3.1268 1.796-5.8419v-30.144c0-2.9125-0.482-5.1507-1.53-6.6222-1.031-1.5076-2.884-2.2339-5.382-2.3176v-0.9772c1.869 0.1606 3.686 0.241 5.452 0.241 2.19 0 4.223-0.0966 6.099-0.2906l7e-3 -8e-4 8e-3 -1e-3c1.69-0.2253 3.261-0.5249 4.714-0.8994v9.8118l0.961 0.1934c1.633-3.8955 3.841-6.5761 6.595-8.1072 2.872-1.5605 5.894-2.3382 9.072-2.3382 2.52 0 4.524 0.3474 6.038 1.0137z" stroke="#D9D9D9"/>
<path d="m311.99 8.5535v0.91714c1.893 0.08695 3.395 0.33934 4.475 0.78048 1.292 0.4358 2.144 1.3218 2.51 2.6225 0.41 1.173 0.599 2.9673 0.599 5.3344v47.616c0 2.3111-0.19 4.1003-0.598 5.3301-0.363 1.2959-1.179 2.1901-2.423 2.6294-1.072 0.3781-2.601 0.6283-4.563 0.7654v0.9099c1.401-0.1008 3.121-0.1507 5.157-0.1508 2.371-0.064 4.902-0.096 7.591-0.096 2.434 0 4.804 0.032 7.111 0.096 2.105 1e-4 3.889 0.0506 5.349 0.1524v-0.9125c-1.902-0.1374-3.398-0.3876-4.466-0.7644-1.242-0.4384-2.086-1.3279-2.516-2.6174-0.41-1.2302-0.602-3.0235-0.602-5.3421v-47.616c0-2.3751 0.19-4.1736 0.603-5.3462 0.429-1.2831 1.268-2.1696 2.503-2.609 1.08-0.4422 2.583-0.69512 4.478-0.78218v-0.918c-1.452 0.0571-3.232 0.11415-5.342 0.17117l-19.866-0.17031zm0 0c1.391 0.05682 3.108 0.11358 5.15 0.17031l1e-3 1e-5c2.373 0.06413 4.905 0.09618 7.597 0.09618 2.436 0 4.809-0.03206 7.118-0.09619l-19.866-0.17031z" stroke="#D9D9D9"/>
</g>
<g class="groupOne">
<path d="m262.24 25.12c5.632 0 10.048 1.696 13.248 5.088s4.8 8.768 4.8 16.128h-33.12l-0.192-1.824h23.136c0.064-3.136-0.192-6.016-0.768-8.64-0.576-2.688-1.472-4.832-2.688-6.432s-2.816-2.4-4.8-2.4c-2.752 0-5.152 1.472-7.2 4.416-1.984 2.88-3.2 7.52-3.648 13.92l0.288 0.48c-0.064 0.896-0.128 1.888-0.192 2.976-0.064 1.024-0.096 2.048-0.096 3.072 0 4.416 0.672 8.128 2.016 11.136s3.104 5.28 5.28 6.816c2.176 1.472 4.384 2.208 6.624 2.208 1.728 0 3.392-0.256 4.992-0.768 1.664-0.576 3.232-1.504 4.704-2.784 1.472-1.344 2.784-3.168 3.936-5.472l1.92 0.768c-0.768 2.176-1.952 4.32-3.552 6.432s-3.648 3.84-6.144 5.184c-2.496 1.28-5.408 1.92-8.736 1.92-4.48 0-8.384-0.992-11.712-2.976-3.328-2.048-5.888-4.96-7.68-8.736s-2.688-8.256-2.688-13.44c0-5.696 0.928-10.56 2.784-14.592s4.448-7.104 7.776-9.216c3.392-2.176 7.296-3.264 11.712-3.264z" fill="#D9D9D9"/>
<path d="m227.63 25.12c1.856 0 3.424 0.384 4.704 1.152 1.344 0.768 2.336 1.76 2.976 2.976 0.704 1.152 1.056 2.464 1.056 3.936 0 1.856-0.576 3.456-1.728 4.8-1.088 1.28-2.56 1.92-4.416 1.92-1.6 0-2.976-0.48-4.128-1.44-1.088-0.96-1.632-2.272-1.632-3.936 0-1.408 0.352-2.592 1.056-3.552 0.768-1.024 1.632-1.824 2.592-2.4-0.64-0.512-1.408-0.736-2.304-0.672-1.728 0.064-3.328 0.64-4.8 1.728-1.472 1.024-2.72 2.368-3.744 4.032-1.024 1.6-1.824 3.328-2.4 5.184s-0.864 3.584-0.864 5.184v22.08c0 3.136 0.864 5.248 2.592 6.336 1.728 1.024 4.128 1.536 7.2 1.536v2.016c-1.472-0.064-3.584-0.128-6.336-0.192-2.688-0.128-5.536-0.192-8.544-0.192-2.304 0-4.608 0.064-6.912 0.192-2.304 0.064-4.064 0.128-5.28 0.192v-2.016c2.496 0 4.256-0.48 5.28-1.44 1.088-0.96 1.632-2.784 1.632-5.472v-30.144c0-2.88-0.48-4.992-1.44-6.336-0.96-1.408-2.784-2.112-5.472-2.112v-2.016c2.048 0.192 4.032 0.288 5.952 0.288 2.176 0 4.192-0.096 6.048-0.288 1.92-0.256 3.68-0.608 5.28-1.056v11.04c0.768-1.856 1.792-3.648 3.072-5.376s2.816-3.136 4.608-4.224c1.792-1.152 3.776-1.728 5.952-1.728z" fill="#D9D9D9"/>
<path d="m172.24 25.12c5.632 0 10.048 1.696 13.248 5.088s4.8 8.768 4.8 16.128h-33.12l-0.192-1.824h23.136c0.064-3.136-0.192-6.016-0.768-8.64-0.576-2.688-1.472-4.832-2.688-6.432s-2.816-2.4-4.8-2.4c-2.752 0-5.152 1.472-7.2 4.416-1.984 2.88-3.2 7.52-3.648 13.92l0.288 0.48c-0.064 0.896-0.128 1.888-0.192 2.976-0.064 1.024-0.096 2.048-0.096 3.072 0 4.416 0.672 8.128 2.016 11.136s3.104 5.28 5.28 6.816c2.176 1.472 4.384 2.208 6.624 2.208 1.728 0 3.392-0.256 4.992-0.768 1.664-0.576 3.232-1.504 4.704-2.784 1.472-1.344 2.784-3.168 3.936-5.472l1.92 0.768c-0.768 2.176-1.952 4.32-3.552 6.432s-3.648 3.84-6.144 5.184c-2.496 1.28-5.408 1.92-8.736 1.92-4.48 0-8.384-0.992-11.712-2.976-3.328-2.048-5.888-4.96-7.68-8.736s-2.688-8.256-2.688-13.44c0-5.696 0.928-10.56 2.784-14.592s4.448-7.104 7.776-9.216c3.392-2.176 7.296-3.264 11.712-3.264z" fill="#D9D9D9"/>
<path d="m107.95 0.83203v34.944c1.6-3.968 3.84-6.72 6.72-8.256 2.944-1.6 6.048-2.4 9.312-2.4 2.56 0 4.64 0.352 6.24 1.056 1.664 0.64 3.04 1.536 4.128 2.688 1.152 1.216 1.984 2.784 2.496 4.704s0.768 4.512 0.768 7.776v25.728c0 2.688 0.512 4.512 1.536 5.472 1.088 0.96 2.88 1.44 5.376 1.44v2.016c-1.152-0.064-2.88-0.128-5.184-0.192-2.304-0.128-4.544-0.192-6.72-0.192-2.24 0-4.448 0.064-6.624 0.192-2.112 0.064-3.68 0.128-4.704 0.192v-2.016c2.176 0 3.712-0.48 4.608-1.44s1.344-2.784 1.344-5.472v-28.416c0-1.856-0.16-3.52-0.48-4.992-0.32-1.536-1.024-2.752-2.112-3.648-1.024-0.96-2.56-1.44-4.608-1.44-2.304 0-4.384 0.672-6.24 2.016-1.792 1.28-3.232 3.072-4.32 5.376-1.024 2.304-1.536 4.928-1.536 7.872v23.232c0 2.688 0.448 4.512 1.344 5.472s2.432 1.44 4.608 1.44v2.016c-1.088-0.064-2.688-0.128-4.8-0.192-2.048-0.128-4.16-0.192-6.336-0.192-2.24 0-4.5436 0.064-6.9116 0.192-2.304 0.064-4.032 0.128-5.184 0.192v-2.016c2.496 0 4.256-0.48 5.28-1.44 1.088-0.96 1.632-2.784 1.632-5.472v-54.72c0-2.88-0.512-4.992-1.536-6.336-0.96-1.408-2.752-2.112-5.376-2.112v-2.016c2.048 0.192 4.032 0.288 5.952 0.288 2.112 0 4.1276-0.096 6.0476-0.288 1.92-0.256 3.68-0.608 5.28-1.056z" fill="#D9D9D9"/>
<path d="m90.184 8.032v1.92c-1.28 0.32002-2.656 1.184-4.128 2.592-1.472 1.344-2.72 3.616-3.744 6.816l-17.664 57.024h-0.864-0.768-0.864-0.768l-20.352-60.576c-0.768-2.368-1.664-3.904-2.688-4.608-0.96-0.768-1.888-1.184-2.784-1.248v-1.92c1.344 0.064 3.008 0.128 4.992 0.192s3.904 0.096 5.76 0.096c2.624 0 5.056-0.032 7.296-0.096 2.304-0.064 4.128-0.128 5.472-0.192v1.92c-1.92 0.06402-3.456 0.28802-4.608 0.67202-1.088 0.32-1.728 1.024-1.92 2.112-0.128 1.088 0.192 2.848 0.96 5.28l14.112 43.392-1.632 2.112 12.096-38.112c1.28-3.968 1.856-7.04 1.728-9.216-0.064-2.24-0.8-3.808-2.208-4.704-1.344-0.96-3.328-1.472-5.952-1.536v-1.92c1.92 0.064 3.84 0.128 5.76 0.192s3.776 0.096 5.568 0.096c1.6 0 2.944-0.032 4.032-0.096 1.152-0.064 2.208-0.128 3.168-0.192zm-67.584 0v1.92c-1.536 0.12802-2.624 0.51202-3.264 1.152-0.64 0.576-0.96 1.44-0.96 2.592 0.064 1.088 0.384 2.528 0.96 4.32l14.88 44.448-2.496 2.784 13.056-40.608 1.44 2.4-15.648 49.344h-0.768-0.864-0.864-0.768l-20.736-60.288c-0.832-2.432-1.856-4.032-3.072-4.8-1.216-0.832-2.336-1.28-3.36-1.344v-1.92c1.536 0.064 3.36 0.128 5.472 0.192s4.16 0.096 6.144 0.096c2.304 0 4.384-0.032 6.24-0.096 1.92-0.064 3.456-0.128 4.608-0.192z" fill="#D9D9D9"/>
</g>
</svg>