<svg width="760" height="309" viewBox="0 0 760 309" fill="none" xmlns="http://www.w3.org/2000/svg">
<path fill-rule="evenodd" clip-rule="evenodd" d="M216.97 156.44C216.982 155.926 216.989 155.41 216.989 154.892C216.989 148.445 216.006 142.227 214.182 136.38C207.235 133.958 198.423 132.773 186.261 133.765C171.865 134.941 159.368 142.256 148.79 148.806C147.735 149.459 146.7 150.104 145.683 150.738C135.842 156.866 127.652 161.966 119.104 163.917C109.645 166.077 101.394 165.24 93.1834 161.863C93.9249 168.501 95.7129 174.823 98.3784 180.659C105.887 182.115 113.938 182.082 122.79 180.061C134.241 177.447 144.913 170.764 154.261 164.91C155.362 164.221 156.445 163.543 157.508 162.885C168.281 156.214 177.663 151.081 187.608 150.269C198.832 149.353 205.424 150.698 209.746 152.391C212.721 153.557 214.744 154.868 216.97 156.44ZM215.968 166.162C209.862 162.23 202.162 159.197 192.44 159.197C178.952 159.197 166.708 166.654 156.888 173.243C154.888 174.586 153.013 175.877 151.203 177.124L151.202 177.125L151.201 177.126L151.2 177.126L151.2 177.126C148.198 179.194 145.374 181.14 142.447 182.993C137.869 185.891 133.93 187.961 130.415 189.032C123.003 191.29 114.309 192.296 105.364 192.352C109.984 198.452 115.706 203.671 122.232 207.715C126.736 207.065 131.108 206.131 135.242 204.872C140.896 203.149 146.323 200.137 151.304 196.984C154.456 194.989 157.799 192.688 161.02 190.472C162.771 189.266 164.486 188.086 166.114 186.994C176.175 180.243 184.568 175.756 192.44 175.756C200.069 175.756 205.691 178.693 210.466 182.626C213.029 177.501 214.903 171.973 215.968 166.162ZM205.513 190.866C204.217 189.419 202.59 188.138 200.556 187.159C196.015 184.975 190.731 184.944 185.296 185.956C178.999 187.127 173.759 190.107 169.147 193.298C166.839 194.895 164.537 196.655 162.3 198.371L161.959 198.634L161.958 198.634C159.792 200.297 157.641 201.947 155.336 203.6C150.059 207.384 143.994 211.168 136.239 214.138C142.127 215.99 148.393 216.988 154.893 216.988C158.893 216.988 162.806 216.61 166.596 215.887C168.517 214.474 170.321 213.089 171.991 211.808L171.992 211.807L171.992 211.807L172.38 211.509C174.657 209.762 176.647 208.245 178.569 206.915C182.418 204.252 185.39 202.781 188.325 202.235C191.429 201.658 192.814 201.912 193.233 202.032C193.276 202.124 193.334 202.267 193.398 202.474C193.483 202.75 193.558 203.067 193.623 203.432C198.145 199.82 202.151 195.588 205.513 190.866ZM95.5512 136.546C100.296 138.999 108.107 141.749 115.483 140.068C127.654 137.295 134.277 130.34 139.245 124.834C144.213 119.328 153.693 111.256 162.717 109.724C171.82 108.179 183.913 112.953 187.266 122.35C178.412 115.863 171.775 115.954 167.841 116.008C167.507 116.012 167.193 116.017 166.898 116.017C163.131 116.017 156.371 120.269 151.333 127.111C145.786 134.645 130.8 153.647 115.483 155.841C106.017 157.197 98.3798 154.223 93.0172 152.135H93.0172C92.9644 152.114 92.9118 152.093 92.8594 152.073C93.0999 146.691 94.0255 141.487 95.5512 136.546Z" fill="#E8E8E8"/>
<circle cx="154.892" cy="154.892" r="60.1628" stroke="#E8E8E8" stroke-width="3.8665"/>
<path d="M282.543 93.3901L306.458 147.123C307.611 149.565 308.764 151.261 309.918 152.211C311.139 153.093 312.258 153.568 313.276 153.636V155.671C311.784 155.535 309.952 155.468 307.781 155.468C305.61 155.4 303.439 155.366 301.268 155.366C298.35 155.366 295.603 155.4 293.025 155.468C290.514 155.468 288.479 155.535 286.919 155.671V153.636C290.243 153.5 292.414 152.89 293.432 151.804C294.449 150.651 294.178 148.412 292.618 145.087L275.419 106.213L276.844 104.89L261.681 138.981C260.595 141.492 259.917 143.663 259.645 145.495C259.374 147.258 259.476 148.717 259.951 149.87C260.493 151.024 261.409 151.906 262.698 152.516C263.987 153.127 265.683 153.5 267.787 153.636V155.671C266.362 155.535 264.767 155.468 263.004 155.468C261.307 155.4 259.476 155.366 257.508 155.366C256.287 155.366 254.76 155.4 252.929 155.468C251.165 155.468 249.808 155.535 248.858 155.671V153.636C250.758 153.161 252.352 152.075 253.641 150.379C254.998 148.615 256.287 146.343 257.508 143.561L279.591 93.3901C280.066 93.458 280.541 93.4919 281.016 93.4919C281.559 93.4919 282.068 93.458 282.543 93.3901ZM291.6 131.451V133.486H263.309L264.326 131.451H291.6ZM346.767 93.7972V95.8325C344.528 95.9004 342.832 96.1717 341.678 96.6466C340.525 97.0537 339.745 97.8678 339.338 99.089C338.999 100.242 338.829 102.074 338.829 104.584V145.393C338.829 147.699 339.033 149.429 339.44 150.583C339.847 151.736 340.593 152.482 341.678 152.822C342.764 153.161 344.29 153.331 346.258 153.331H351.652C354.569 153.331 357.147 152.72 359.386 151.499C361.693 150.278 363.592 148.276 365.085 145.495C366.577 142.713 367.595 138.981 368.138 134.3H370.478C370.275 136.403 370.173 139.185 370.173 142.645C370.173 143.866 370.207 145.698 370.275 148.14C370.41 150.583 370.614 153.093 370.885 155.671C367.561 155.535 363.83 155.468 359.691 155.468C355.553 155.4 351.855 155.366 348.599 155.366C346.495 155.366 343.748 155.366 340.355 155.366C336.963 155.366 333.334 155.4 329.466 155.468C325.667 155.468 322.105 155.535 318.781 155.671V153.636C321.02 153.5 322.682 153.229 323.768 152.822C324.921 152.415 325.701 151.6 326.108 150.379C326.515 149.158 326.719 147.326 326.719 144.884V104.584C326.719 102.074 326.515 100.242 326.108 99.089C325.701 97.8678 324.921 97.0537 323.768 96.6466C322.682 96.1717 321.02 95.9004 318.781 95.8325V93.7972C320.341 93.865 322.377 93.9329 324.887 94.0007C327.465 94.0686 330.213 94.1025 333.13 94.1025C335.64 94.1025 338.117 94.0686 340.559 94.0007C343.069 93.9329 345.139 93.865 346.767 93.7972ZM433.123 93.7972V95.8325C431.292 96.3753 429.731 97.4947 428.442 99.1908C427.153 100.887 425.728 103.465 424.168 106.925L402.899 156.078C402.424 156.01 401.915 155.976 401.372 155.976C400.897 155.976 400.423 156.01 399.948 156.078L375.625 102.346C374.54 99.8353 373.387 98.1392 372.165 97.2572C371.012 96.3753 369.893 95.9004 368.807 95.8325V93.7972C370.3 93.865 372.132 93.9329 374.303 94.0007C376.474 94.0686 378.611 94.1025 380.714 94.1025C383.631 94.1025 386.379 94.0686 388.957 94.0007C391.535 93.9329 393.57 93.865 395.063 93.7972V95.8325C391.806 95.9682 389.669 96.6127 388.652 97.7661C387.702 98.8516 387.973 101.057 389.466 104.381L406.97 143.154L405.138 145.291L419.487 112.624C421.319 108.485 422.268 105.229 422.336 102.854C422.404 100.412 421.726 98.6481 420.301 97.5625C418.944 96.477 416.943 95.9004 414.297 95.8325V93.7972C415.721 93.865 417.553 93.9329 419.792 94.0007C422.031 94.0686 424.134 94.1025 426.102 94.1025C427.323 94.1025 428.578 94.0686 429.867 94.0007C431.156 93.9329 432.242 93.865 433.123 93.7972ZM488.799 93.7972C488.528 96.036 488.324 98.241 488.189 100.412C488.121 102.515 488.087 104.143 488.087 105.297C488.087 106.518 488.121 107.705 488.189 108.859C488.256 109.944 488.324 110.86 488.392 111.606H486.052C485.305 105.84 483.847 101.837 481.676 99.5979C479.505 97.2912 476.316 96.1378 472.11 96.1378H466.207C464.24 96.1378 462.713 96.3074 461.628 96.6466C460.542 96.9859 459.796 97.6982 459.389 98.7837C458.982 99.8692 458.778 101.531 458.778 103.77V145.698C458.778 147.869 458.982 149.531 459.389 150.685C459.796 151.77 460.542 152.482 461.628 152.822C462.713 153.161 464.24 153.331 466.207 153.331H472.313C475.57 153.331 478.249 152.788 480.353 151.702C482.524 150.617 484.22 148.785 485.441 146.207C486.662 143.629 487.544 140.169 488.087 135.827H490.427C490.224 137.658 490.122 140.101 490.122 143.154C490.122 144.375 490.156 146.173 490.224 148.547C490.36 150.854 490.563 153.229 490.835 155.671C487.51 155.535 483.779 155.468 479.64 155.468C475.502 155.4 471.804 155.366 468.548 155.366C466.445 155.366 463.697 155.366 460.305 155.366C456.912 155.366 453.283 155.4 449.416 155.468C445.616 155.468 442.055 155.535 438.73 155.671V153.636C440.969 153.5 442.631 153.229 443.717 152.822C444.87 152.415 445.65 151.6 446.057 150.379C446.464 149.158 446.668 147.326 446.668 144.884V104.584C446.668 102.074 446.464 100.242 446.057 99.089C445.65 97.8678 444.87 97.0537 443.717 96.6466C442.631 96.1717 440.969 95.9004 438.73 95.8325V93.7972C442.055 93.865 445.616 93.9329 449.416 94.0007C453.283 94.0686 456.912 94.1025 460.305 94.1025C463.697 94.1025 466.445 94.1025 468.548 94.1025C471.533 94.1025 474.891 94.1025 478.623 94.1025C482.422 94.0346 485.814 93.9329 488.799 93.7972ZM473.738 123.513C473.738 123.513 473.738 123.852 473.738 124.531C473.738 125.209 473.738 125.548 473.738 125.548H455.725C455.725 125.548 455.725 125.209 455.725 124.531C455.725 123.852 455.725 123.513 455.725 123.513H473.738ZM477.198 112.827C476.926 115.948 476.791 118.357 476.791 120.053C476.859 121.681 476.893 123.174 476.893 124.531C476.893 125.888 476.926 127.414 476.994 129.11C477.062 130.738 477.232 133.113 477.503 136.234H475.163C474.959 134.402 474.552 132.706 473.941 131.145C473.331 129.517 472.381 128.194 471.092 127.177C469.803 126.091 467.971 125.548 465.597 125.548V123.513C468.039 123.513 469.871 122.902 471.092 121.681C472.313 120.46 473.195 119.035 473.738 117.407C474.281 115.711 474.654 114.184 474.857 112.827H477.198ZM501.885 93.7972C503.31 93.865 505.209 93.9329 507.584 94.0007C510.026 94.0686 512.435 94.1025 514.809 94.1025C517.93 94.1025 520.915 94.0686 523.765 94.0007C526.682 93.9329 528.751 93.899 529.972 93.899C538.521 93.899 544.83 95.3576 548.901 98.2749C552.972 101.124 555.007 104.822 555.007 109.367C555.007 111.267 554.6 113.201 553.786 115.168C552.972 117.068 551.581 118.866 549.613 120.562C547.646 122.258 544.966 123.683 541.574 124.836C538.182 125.921 533.907 126.566 528.751 126.769L518.168 127.177C518.168 127.177 518.168 126.837 518.168 126.159C518.168 125.48 518.168 125.141 518.168 125.141H527.734C531.669 125.141 534.688 124.497 536.791 123.208C538.894 121.919 540.319 120.155 541.065 117.916C541.811 115.677 542.184 113.201 542.184 110.487C542.184 105.738 541.099 102.108 538.928 99.5979C536.825 97.0876 533.161 95.8325 527.937 95.8325C525.427 95.8325 523.799 96.4092 523.052 97.5625C522.306 98.7159 521.933 101.057 521.933 104.584V144.884C521.933 147.326 522.136 149.158 522.544 150.379C522.951 151.6 523.731 152.415 524.884 152.822C526.038 153.229 527.7 153.5 529.871 153.636V155.671C528.175 155.535 526.004 155.468 523.358 155.468C520.712 155.4 518.066 155.366 515.42 155.366C512.638 155.366 510.026 155.4 507.584 155.468C505.209 155.468 503.31 155.535 501.885 155.671V153.636C504.124 153.5 505.786 153.229 506.872 152.822C508.025 152.415 508.805 151.6 509.212 150.379C509.619 149.158 509.823 147.326 509.823 144.884V104.584C509.823 102.074 509.619 100.208 509.212 98.9873C508.805 97.7661 508.025 96.9519 506.872 96.5449C505.786 96.1378 504.124 95.9004 501.885 95.8325V93.7972ZM520.101 125.955C523.765 126.091 526.546 126.193 528.446 126.261C530.413 126.329 531.974 126.396 533.127 126.464C534.281 126.464 535.468 126.566 536.689 126.769C540.42 127.244 543.575 128.262 546.153 129.822C548.799 131.383 550.563 134.063 551.445 137.862L553.684 147.021C554.159 149.192 554.702 150.752 555.312 151.702C555.991 152.584 556.873 153.025 557.958 153.025C558.772 153.025 559.62 152.72 560.502 152.109C561.452 151.499 562.266 150.82 562.945 150.074L564.37 151.397C563.013 153.093 561.452 154.484 559.688 155.569C557.924 156.587 555.652 157.096 552.87 157.096C549.206 157.096 546.493 156.316 544.729 154.755C542.965 153.127 541.811 151.261 541.269 149.158L538.114 136.743C537.3 132.74 535.977 130.162 534.145 129.008C532.313 127.787 529.837 127.177 526.716 127.177H520.101V125.955ZM597.2 93.7972V95.8325C594.961 95.9004 593.265 96.1717 592.111 96.6466C590.958 97.0537 590.178 97.8678 589.771 99.089C589.431 100.242 589.262 102.074 589.262 104.584V144.884C589.262 147.326 589.431 149.158 589.771 150.379C590.178 151.6 590.958 152.415 592.111 152.822C593.265 153.229 594.961 153.5 597.2 153.636V155.671C595.571 155.535 593.502 155.468 590.992 155.468C588.482 155.4 585.937 155.366 583.359 155.366C580.51 155.366 577.796 155.4 575.218 155.468C572.708 155.468 570.706 155.535 569.214 155.671V153.636C571.453 153.5 573.149 153.229 574.302 152.822C575.455 152.415 576.202 151.6 576.541 150.379C576.948 149.158 577.152 147.326 577.152 144.884V104.584C577.152 102.074 576.948 100.242 576.541 99.089C576.202 97.8678 575.455 97.0537 574.302 96.6466C573.149 96.1717 571.453 95.9004 569.214 95.8325V93.7972C570.706 93.865 572.708 93.9329 575.218 94.0007C577.796 94.0686 580.51 94.1025 583.359 94.1025C585.937 94.1025 588.482 94.0686 590.992 94.0007C593.502 93.9329 595.571 93.865 597.2 93.7972ZM636.129 93.3901L660.044 147.123C661.198 149.565 662.351 151.261 663.504 152.211C664.725 153.093 665.845 153.568 666.863 153.636V155.671C665.37 155.535 663.538 155.468 661.367 155.468C659.196 155.4 657.025 155.366 654.854 155.366C651.937 155.366 649.189 155.4 646.611 155.468C644.101 155.468 642.065 155.535 640.505 155.671V153.636C643.829 153.5 646 152.89 647.018 151.804C648.036 150.651 647.764 148.412 646.204 145.087L629.005 106.213L630.43 104.89L615.267 138.981C614.181 141.492 613.503 143.663 613.232 145.495C612.96 147.258 613.062 148.717 613.537 149.87C614.08 151.024 614.996 151.906 616.285 152.516C617.574 153.127 619.27 153.5 621.373 153.636V155.671C619.948 155.535 618.354 155.468 616.59 155.468C614.894 155.4 613.062 155.366 611.095 155.366C609.873 155.366 608.347 155.4 606.515 155.468C604.751 155.468 603.394 155.535 602.444 155.671V153.636C604.344 153.161 605.938 152.075 607.227 150.379C608.584 148.615 609.873 146.343 611.095 143.561L633.178 93.3901C633.653 93.458 634.128 93.4919 634.603 93.4919C635.145 93.4919 635.654 93.458 636.129 93.3901ZM645.186 131.451V133.486H616.895L617.913 131.451H645.186Z" fill="#E8E8E8"/>
<path d="M357.418 184.898C358.779 184.898 359.953 185.051 360.94 185.357C361.926 185.663 362.794 186.071 363.543 186.582C364.291 187.092 365.006 187.637 365.686 188.215C366.979 189.304 367.745 188.436 367.983 185.612H369.157C369.089 186.769 369.038 188.164 369.004 189.797C368.97 191.43 368.953 193.608 368.953 196.33H367.779C367.541 195.071 367.319 194.067 367.115 193.319C366.911 192.57 366.656 191.941 366.35 191.43C366.077 190.886 365.703 190.342 365.227 189.797C364.308 188.64 363.219 187.739 361.96 187.092C360.736 186.446 359.426 186.122 358.031 186.122C355.172 186.122 352.876 187.466 351.14 190.154C349.405 192.842 348.537 196.534 348.537 201.23C348.537 204.462 348.98 207.184 349.864 209.396C350.749 211.607 351.94 213.292 353.437 214.448C354.934 215.571 356.584 216.133 358.388 216.133C359.783 216.133 361.144 215.826 362.471 215.214C363.798 214.568 364.904 213.649 365.788 212.458C366.503 211.573 367.013 210.638 367.319 209.651C367.626 208.63 367.898 207.218 368.136 205.415H369.31C369.31 208.239 369.327 210.519 369.361 212.254C369.395 213.989 369.446 215.452 369.514 216.643H368.34C368.204 215.18 367.949 214.244 367.575 213.836C367.234 213.394 366.724 213.462 366.043 214.04C364.989 214.925 363.798 215.707 362.471 216.388C361.144 217.034 359.46 217.358 357.418 217.358C354.288 217.358 351.515 216.745 349.099 215.52C346.683 214.261 344.795 212.441 343.434 210.059C342.073 207.677 341.392 204.802 341.392 201.434C341.392 198.133 342.09 195.241 343.485 192.757C344.88 190.274 346.785 188.351 349.201 186.99C351.617 185.595 354.356 184.898 357.418 184.898ZM394.743 185.459L406.788 212.356C407.366 213.581 407.945 214.431 408.523 214.908C409.102 215.35 409.629 215.588 410.105 215.622V216.643C409.357 216.575 408.404 216.541 407.247 216.541C406.124 216.507 404.985 216.49 403.828 216.49C402.297 216.49 400.868 216.507 399.541 216.541C398.214 216.541 397.125 216.575 396.274 216.643V215.622C397.907 215.554 398.962 215.231 399.439 214.653C399.949 214.074 399.813 212.968 399.03 211.335L390.66 192.247L391.477 191.277L384.229 207.711C383.617 209.141 383.226 210.348 383.055 211.335C382.919 212.322 382.987 213.121 383.26 213.734C383.532 214.312 384.008 214.755 384.689 215.061C385.369 215.367 386.22 215.554 387.24 215.622V216.643C386.458 216.575 385.607 216.541 384.689 216.541C383.804 216.507 382.834 216.49 381.779 216.49C381.201 216.49 380.469 216.507 379.585 216.541C378.7 216.541 378.02 216.575 377.543 216.643V215.622C378.462 215.418 379.262 214.874 379.942 213.989C380.623 213.104 381.286 211.897 381.933 210.365L392.906 185.459C393.212 185.493 393.518 185.51 393.824 185.51C394.131 185.51 394.437 185.493 394.743 185.459ZM398.979 204.496V205.517H384.791L385.301 204.496H398.979ZM417.304 185.612C418.053 185.646 419.039 185.68 420.264 185.714C421.489 185.748 422.714 185.765 423.939 185.765C425.674 185.765 427.325 185.748 428.89 185.714C430.455 185.68 431.578 185.663 432.258 185.663C436.511 185.663 439.659 186.429 441.7 187.96C443.742 189.491 444.763 191.566 444.763 194.186C444.763 195.343 444.541 196.5 444.099 197.657C443.657 198.814 442.908 199.886 441.853 200.872C440.799 201.825 439.353 202.608 437.515 203.22C435.712 203.799 433.415 204.088 430.625 204.088H426.236C426.236 204.088 426.236 203.918 426.236 203.577C426.236 203.237 426.236 203.067 426.236 203.067H430.115C432.156 203.067 433.704 202.693 434.759 201.944C435.848 201.162 436.596 200.141 437.005 198.882C437.413 197.589 437.617 196.211 437.617 194.748C437.617 192.06 437.141 190.035 436.188 188.674C435.27 187.313 433.67 186.633 431.391 186.633C429.996 186.633 429.077 186.922 428.635 187.5C428.226 188.079 428.022 189.253 428.022 191.022V211.233C428.022 212.458 428.124 213.377 428.328 213.989C428.533 214.602 428.924 215.01 429.502 215.214C430.115 215.418 430.999 215.554 432.156 215.622V216.643C431.203 216.575 430.013 216.541 428.584 216.541C427.154 216.507 425.708 216.49 424.245 216.49C422.816 216.49 421.489 216.507 420.264 216.541C419.039 216.541 418.053 216.575 417.304 216.643V215.622C418.427 215.554 419.261 215.418 419.805 215.214C420.383 215.01 420.758 214.602 420.928 213.989C421.132 213.377 421.234 212.458 421.234 211.233V191.022C421.234 189.763 421.132 188.844 420.928 188.266C420.724 187.654 420.332 187.245 419.754 187.041C419.21 186.803 418.393 186.667 417.304 186.633V185.612ZM467.82 185.612V186.633C466.697 186.667 465.847 186.803 465.268 187.041C464.724 187.245 464.35 187.654 464.145 188.266C463.975 188.844 463.89 189.763 463.89 191.022V211.233C463.89 212.458 463.975 213.377 464.145 213.989C464.35 214.602 464.724 215.01 465.268 215.214C465.847 215.418 466.697 215.554 467.82 215.622V216.643C466.969 216.575 465.881 216.541 464.554 216.541C463.227 216.507 461.917 216.49 460.624 216.49C459.127 216.49 457.698 216.507 456.337 216.541C455.01 216.541 453.955 216.575 453.172 216.643V215.622C454.295 215.554 455.129 215.418 455.673 215.214C456.252 215.01 456.626 214.602 456.796 213.989C457 213.377 457.102 212.458 457.102 211.233V191.022C457.102 189.763 457 188.844 456.796 188.266C456.626 187.654 456.252 187.245 455.673 187.041C455.095 186.803 454.261 186.667 453.172 186.633V185.612C453.955 185.646 455.01 185.68 456.337 185.714C457.698 185.748 459.127 185.765 460.624 185.765C461.917 185.765 463.227 185.748 464.554 185.714C465.881 185.68 466.969 185.646 467.82 185.612ZM506.626 185.612C506.489 186.939 506.387 188.215 506.319 189.44C506.285 190.665 506.268 191.6 506.268 192.247C506.268 193.098 506.285 193.914 506.319 194.697C506.353 195.479 506.387 196.126 506.421 196.636H505.248C504.873 194.186 504.38 192.247 503.767 190.818C503.189 189.389 502.389 188.368 501.369 187.756C500.348 187.109 498.987 186.786 497.286 186.786H495.142V210.723C495.142 212.084 495.261 213.104 495.499 213.785C495.772 214.465 496.282 214.925 497.03 215.163C497.779 215.401 498.868 215.554 500.297 215.622V216.643C499.684 216.609 498.868 216.592 497.847 216.592C496.86 216.558 495.823 216.541 494.734 216.541C493.645 216.507 492.624 216.49 491.671 216.49C490.651 216.49 489.579 216.507 488.456 216.541C487.367 216.541 486.347 216.558 485.394 216.592C484.475 216.592 483.744 216.609 483.199 216.643V215.622C484.628 215.554 485.717 215.401 486.466 215.163C487.214 214.925 487.708 214.465 487.946 213.785C488.218 213.104 488.354 212.084 488.354 210.723V186.786H486.21C484.509 186.786 483.148 187.109 482.127 187.756C481.107 188.368 480.29 189.389 479.678 190.818C479.099 192.247 478.623 194.186 478.249 196.636H477.075C477.143 196.092 477.177 195.445 477.177 194.697C477.211 193.914 477.228 193.098 477.228 192.247C477.228 191.6 477.194 190.665 477.126 189.44C477.092 188.215 477.007 186.939 476.871 185.612C478.334 185.646 479.933 185.68 481.668 185.714C483.403 185.748 485.139 185.765 486.874 185.765C488.643 185.765 490.242 185.765 491.671 185.765C493.135 185.765 494.734 185.765 496.469 185.765C498.238 185.765 500.008 185.748 501.777 185.714C503.546 185.68 505.163 185.646 506.626 185.612ZM527.25 185.459L539.295 212.356C539.873 213.581 540.452 214.431 541.03 214.908C541.609 215.35 542.136 215.588 542.612 215.622V216.643C541.864 216.575 540.911 216.541 539.754 216.541C538.631 216.507 537.492 216.49 536.335 216.49C534.804 216.49 533.375 216.507 532.048 216.541C530.721 216.541 529.632 216.575 528.781 216.643V215.622C530.414 215.554 531.469 215.231 531.946 214.653C532.456 214.074 532.32 212.968 531.537 211.335L523.167 192.247L523.984 191.277L516.736 207.711C516.124 209.141 515.733 210.348 515.562 211.335C515.426 212.322 515.494 213.121 515.767 213.734C516.039 214.312 516.515 214.755 517.196 215.061C517.876 215.367 518.727 215.554 519.747 215.622V216.643C518.965 216.575 518.114 216.541 517.196 216.541C516.311 216.507 515.341 216.49 514.286 216.49C513.708 216.49 512.976 216.507 512.092 216.541C511.207 216.541 510.527 216.575 510.05 216.643V215.622C510.969 215.418 511.769 214.874 512.449 213.989C513.13 213.104 513.793 211.897 514.44 210.365L525.413 185.459C525.719 185.493 526.025 185.51 526.331 185.51C526.638 185.51 526.944 185.493 527.25 185.459ZM531.486 204.496V205.517H517.298L517.808 204.496H531.486ZM564.459 185.612V186.633C563.336 186.667 562.486 186.803 561.907 187.041C561.363 187.245 560.988 187.654 560.784 188.266C560.614 188.844 560.529 189.763 560.529 191.022V211.641C560.529 212.73 560.614 213.564 560.784 214.142C560.988 214.687 561.346 215.044 561.856 215.214C562.4 215.384 563.132 215.469 564.051 215.469H566.449C567.879 215.469 569.172 215.163 570.328 214.551C571.485 213.904 572.455 212.866 573.238 211.437C574.054 210.008 574.616 208.069 574.922 205.619H576.096C575.994 206.708 575.943 208.103 575.943 209.804C575.943 210.45 575.96 211.42 575.994 212.713C576.062 213.972 576.164 215.282 576.3 216.643C574.633 216.575 572.761 216.541 570.686 216.541C568.61 216.507 566.756 216.49 565.123 216.49C564.068 216.49 562.656 216.49 560.886 216.49C559.151 216.49 557.297 216.507 555.323 216.541C553.384 216.541 551.546 216.575 549.811 216.643V215.622C550.934 215.554 551.768 215.418 552.312 215.214C552.89 215.01 553.265 214.602 553.435 213.989C553.639 213.377 553.741 212.458 553.741 211.233V191.022C553.741 189.763 553.639 188.844 553.435 188.266C553.231 187.654 552.839 187.245 552.261 187.041C551.717 186.803 550.9 186.667 549.811 186.633V185.612C550.628 185.646 551.7 185.68 553.027 185.714C554.388 185.748 555.834 185.765 557.365 185.765C558.658 185.765 559.951 185.748 561.244 185.714C562.537 185.68 563.608 185.646 564.459 185.612Z" fill="#E8E8E8"/>
<line x1="311.331" y1="202.45" x2="249.467" y2="202.45" stroke="#E8E8E8" stroke-width="1.5466"/>
<line x1="665.967" y1="202.45" x2="604.103" y2="202.45" stroke="#E8E8E8" stroke-width="1.5466"/>
</svg>
